<svg width="26" height="26" viewBox="0 0 26 26" fill="none" xmlns="http://www.w3.org/2000/svg">
<rect width="26" height="26" rx="6" fill="#DFE2EA" fill-opacity="0.3"/>
<rect x="0.25" y="0.25" width="25.5" height="25.5" rx="5.75" stroke="#99A1B7" stroke-opacity="0.6" stroke-width="0.5"/>
<path d="M11.8334 19.2712H11.2501C8.08258 19.2712 6.72925 17.9178 6.72925 14.7503V11.2503C6.72925 8.08283 8.08258 6.72949 11.2501 6.72949H14.7501C17.9176 6.72949 19.2709 8.08283 19.2709 11.2503V12.417C19.2709 12.6562 19.0726 12.8545 18.8334 12.8545C18.5942 12.8545 18.3959 12.6562 18.3959 12.417V11.2503C18.3959 8.56116 17.4392 7.60449 14.7501 7.60449H11.2501C8.56091 7.60449 7.60425 8.56116 7.60425 11.2503V14.7503C7.60425 17.4395 8.56091 18.3962 11.2501 18.3962H11.8334C12.0726 18.3962 12.2709 18.5945 12.2709 18.8337C12.2709 19.0728 12.0726 19.2712 11.8334 19.2712Z" fill="#99A1B7"/>
<path d="M18.8335 11.3955H7.18433C6.94516 11.3955 6.74683 11.1972 6.74683 10.958C6.74683 10.7188 6.94516 10.5205 7.18433 10.5205H18.8335C19.0726 10.5205 19.271 10.7188 19.271 10.958C19.271 11.1972 19.0726 11.3955 18.8335 11.3955Z" fill="#99A1B7"/>
<path d="M13.0001 15.4795H7.18433C6.94516 15.4795 6.74683 15.2812 6.74683 15.042C6.74683 14.8028 6.94516 14.6045 7.18433 14.6045H13.0001C13.2393 14.6045 13.4376 14.8028 13.4376 15.042C13.4376 15.2812 13.2393 15.4795 13.0001 15.4795Z" fill="#99A1B7"/>
<path d="M10.9641 19.2654C10.7249 19.2654 10.5266 19.067 10.5266 18.8279V7.17871C10.5266 6.93954 10.7249 6.74121 10.9641 6.74121C11.2033 6.74121 11.4016 6.93954 11.4016 7.17871V18.8279C11.4016 19.067 11.2091 19.2654 10.9641 19.2654Z" fill="#99A1B7"/>
<path d="M15.0474 13.432C14.8082 13.432 14.6099 13.2337 14.6099 12.9945V7.17871C14.6099 6.93954 14.8082 6.74121 15.0474 6.74121C15.2865 6.74121 15.4849 6.93954 15.4849 7.17871V12.9945C15.4849 13.2337 15.2924 13.432 15.0474 13.432Z" fill="#99A1B7"/>
<path d="M14.61 19.2711C14.365 19.2711 14.1433 19.1836 13.98 19.0202C13.7816 18.8277 13.6941 18.5419 13.7408 18.2444L13.875 17.317C13.9041 17.0953 14.0383 16.827 14.2016 16.6636L16.6225 14.2428C16.9375 13.9278 17.2467 13.7644 17.5733 13.7294C17.9758 13.6886 18.3783 13.8636 18.7575 14.2428C19.1366 14.6219 19.3116 15.0186 19.2708 15.427C19.2416 15.7536 19.0725 16.0628 18.7575 16.3778L16.3366 18.7986C16.1791 18.9561 15.9108 19.0903 15.6833 19.1253L14.7616 19.2594C14.7091 19.2653 14.6566 19.2711 14.61 19.2711ZM17.6783 14.6044C17.6725 14.6044 17.6608 14.6044 17.655 14.6044C17.5383 14.6161 17.3983 14.7036 17.235 14.8669L14.8141 17.2878C14.785 17.3169 14.7441 17.4044 14.7383 17.4453L14.6041 18.3727L15.555 18.2678C15.5958 18.262 15.6833 18.2153 15.7125 18.192L18.1333 15.7711C18.2966 15.6078 18.3841 15.4678 18.3958 15.3511C18.4075 15.217 18.32 15.0594 18.1333 14.8727C17.9583 14.6919 17.8067 14.6044 17.6783 14.6044Z" fill="#99A1B7"/>
<path d="M18.0984 16.856C18.0576 16.856 18.0226 16.8501 17.9818 16.8385C17.1068 16.5935 16.4068 15.8935 16.1618 15.0185C16.0976 14.7851 16.2318 14.546 16.4651 14.4818C16.7043 14.4177 16.9376 14.5518 17.0018 14.7852C17.1651 15.3685 17.6318 15.8352 18.2151 15.9985C18.4484 16.0627 18.5826 16.3077 18.5185 16.5352C18.466 16.7335 18.2851 16.856 18.0984 16.856Z" fill="#99A1B7"/>
</svg>
