<svg width="14" height="14" viewBox="0 0 14 14" fill="none" xmlns="http://www.w3.org/2000/svg">
<path d="M9.51877 0.750061H4.28127C2.00627 0.750061 0.650024 2.10631 0.650024 4.38131V9.61256C0.650024 11.8938 2.00627 13.2501 4.28127 13.2501H9.51252C11.7875 13.2501 13.1438 11.8938 13.1438 9.61881V4.38131C13.15 2.10631 11.7938 0.750061 9.51877 0.750061ZM9.88752 5.56256L6.34377 9.10631C6.25627 9.19381 6.13752 9.24381 6.01252 9.24381C5.88752 9.24381 5.76877 9.19381 5.68127 9.10631L3.91252 7.33756C3.73127 7.15631 3.73127 6.85631 3.91252 6.67506C4.09377 6.49381 4.39377 6.49381 4.57502 6.67506L6.01252 8.11256L9.22502 4.90006C9.40627 4.71881 9.70627 4.71881 9.88752 4.90006C10.0688 5.08131 10.0688 5.37506 9.88752 5.56256Z" fill="#27AE60"/>
</svg>
