<svg width="18" height="18" viewBox="0 0 18 18" fill="none" xmlns="http://www.w3.org/2000/svg">
<g clip-path="url(#clip0_351_5684)">
<path d="M18 3C18 1.3455 16.6545 0 15 0C13.3455 0 12 1.3455 12 3C12 4.395 12.9578 5.571 14.25 5.90475V6C14.25 7.2405 13.2405 8.25 12 8.25H6C5.15625 8.25 4.377 8.5305 3.75 9.0015V5.90475C5.04225 5.571 6 4.395 6 3C6 1.3455 4.6545 0 3 0C1.3455 0 0 1.3455 0 3C0 4.395 0.95775 5.571 2.25 5.90475V12.0945C0.95775 12.4282 0 13.6042 0 14.9992C0 16.6537 1.3455 17.9992 3 17.9992C4.6545 17.9992 6 16.6537 6 14.9992C6 13.6042 5.04225 12.4282 3.75 12.0945V11.9992C3.75 10.7587 4.7595 9.74925 6 9.74925H12C14.0677 9.74925 15.75 8.067 15.75 5.99925V5.904C17.0422 5.57025 18 4.395 18 3ZM1.5 3C1.5 2.17275 2.17275 1.5 3 1.5C3.82725 1.5 4.5 2.17275 4.5 3C4.5 3.82725 3.82725 4.5 3 4.5C2.17275 4.5 1.5 3.82725 1.5 3ZM4.5 15C4.5 15.8272 3.82725 16.5 3 16.5C2.17275 16.5 1.5 15.8272 1.5 15C1.5 14.1727 2.17275 13.5 3 13.5C3.82725 13.5 4.5 14.1727 4.5 15ZM15 4.5C14.1727 4.5 13.5 3.82725 13.5 3C13.5 2.17275 14.1727 1.5 15 1.5C15.8273 1.5 16.5 2.17275 16.5 3C16.5 3.82725 15.8273 4.5 15 4.5Z" fill="#226AB2"/>
</g>
<defs>
<clipPath id="clip0_351_5684">
<rect width="18" height="18" fill="white"/>
</clipPath>
</defs>
</svg>
