<svg width="13" height="12" viewBox="0 0 13 12" fill="none" xmlns="http://www.w3.org/2000/svg">
<path d="M6.40004 0.166656C3.18588 0.166656 0.566711 2.78582 0.566711 5.99999C0.566711 9.21416 3.18588 11.8333 6.40004 11.8333C9.61421 11.8333 12.2334 9.21416 12.2334 5.99999C12.2334 2.78582 9.61421 0.166656 6.40004 0.166656ZM5.96254 3.66666C5.96254 3.42749 6.16088 3.22916 6.40004 3.22916C6.63921 3.22916 6.83754 3.42749 6.83754 3.66666V6.58332C6.83754 6.82249 6.63921 7.02082 6.40004 7.02082C6.16088 7.02082 5.96254 6.82249 5.96254 6.58332V3.66666ZM6.93671 8.55499C6.90754 8.63082 6.86671 8.68916 6.81421 8.74749C6.75588 8.79999 6.69171 8.84082 6.62171 8.86999C6.55171 8.89916 6.47588 8.91666 6.40004 8.91666C6.32421 8.91666 6.24838 8.89916 6.17838 8.86999C6.10838 8.84082 6.04421 8.79999 5.98588 8.74749C5.93338 8.68916 5.89254 8.63082 5.86338 8.55499C5.83421 8.48499 5.81671 8.40916 5.81671 8.33332C5.81671 8.25749 5.83421 8.18166 5.86338 8.11166C5.89254 8.04166 5.93338 7.97749 5.98588 7.91916C6.04421 7.86666 6.10838 7.82582 6.17838 7.79666C6.31838 7.73832 6.48171 7.73832 6.62171 7.79666C6.69171 7.82582 6.75588 7.86666 6.81421 7.91916C6.86671 7.97749 6.90754 8.04166 6.93671 8.11166C6.96588 8.18166 6.98338 8.25749 6.98338 8.33332C6.98338 8.40916 6.96588 8.48499 6.93671 8.55499Z" fill="#898995"/>
</svg>
