<svg width="25" height="24" viewBox="0 0 25 24" fill="none" xmlns="http://www.w3.org/2000/svg">
<path d="M16.5233 2H8.14325C4.50325 2 2.33325 4.17 2.33325 7.81V16.18C2.33325 19.83 4.50325 22 8.14325 22H16.5133C20.1533 22 22.3233 19.83 22.3233 16.19V7.81C22.3333 4.17 20.1633 2 16.5233 2ZM8.80325 10.98C9.09325 10.69 9.57325 10.69 9.86325 10.98L11.5833 12.7V6.51C11.5833 6.1 11.9233 5.76 12.3333 5.76C12.7433 5.76 13.0833 6.1 13.0833 6.51V12.7L14.8033 10.98C15.0933 10.69 15.5733 10.69 15.8633 10.98C16.1533 11.27 16.1533 11.75 15.8633 12.04L12.8633 15.04C12.7933 15.11 12.7133 15.16 12.6233 15.2C12.5333 15.24 12.4333 15.26 12.3333 15.26C12.2333 15.26 12.1433 15.24 12.0433 15.2C11.9533 15.16 11.8733 15.11 11.8033 15.04L8.80325 12.04C8.51325 11.75 8.51325 11.28 8.80325 10.98ZM18.5733 17.22C16.5633 17.89 14.4533 18.23 12.3333 18.23C10.2133 18.23 8.10325 17.89 6.09325 17.22C5.70325 17.09 5.49325 16.66 5.62325 16.27C5.75325 15.88 6.17325 15.66 6.57325 15.8C10.2933 17.04 14.3833 17.04 18.1033 15.8C18.4933 15.67 18.9233 15.88 19.0533 16.27C19.1733 16.67 18.9633 17.09 18.5733 17.22Z" fill="#FABD13"/>
</svg>
