<svg width="13" height="14" viewBox="0 0 13 14" fill="none" xmlns="http://www.w3.org/2000/svg">
<path d="M12.8743 3.22567L10.2743 0.625674C10.2338 0.585512 10.1858 0.553738 10.133 0.532173C10.0802 0.510608 10.0237 0.499678 9.96666 0.500007H1.3C0.955218 0.500007 0.624558 0.636971 0.380761 0.880768C0.136964 1.12457 0 1.45523 0 1.80001V12.2C0 12.5448 0.136964 12.8754 0.380761 13.1192C0.624558 13.363 0.955218 13.5 1.3 13.5H11.7C12.0448 13.5 12.3754 13.363 12.6192 13.1192C12.863 12.8754 13 12.5448 13 12.2V3.53334C13.0003 3.47631 12.9894 3.41978 12.9678 3.36698C12.9463 3.31418 12.9145 3.26616 12.8743 3.22567ZM8.23333 1.36667V3.96667H4.76666V1.36667H8.23333ZM3.03333 12.6333V9.6C3.03333 9.48507 3.07899 9.37486 3.16025 9.29359C3.24152 9.21232 3.35174 9.16667 3.46666 9.16667H9.53333C9.64826 9.16667 9.75848 9.21232 9.83974 9.29359C9.92101 9.37486 9.96666 9.48507 9.96666 9.6V12.6333H3.03333ZM12.1333 12.2C12.1333 12.3149 12.0877 12.4251 12.0064 12.5064C11.9251 12.5877 11.8149 12.6333 11.7 12.6333H10.8333V9.6C10.8333 9.25522 10.6964 8.92456 10.4526 8.68076C10.2088 8.43697 9.87811 8.3 9.53333 8.3H3.46666C3.12188 8.3 2.79122 8.43697 2.54743 8.68076C2.30363 8.92456 2.16667 9.25522 2.16667 9.6V12.6333H1.3C1.18507 12.6333 1.07485 12.5877 0.993586 12.5064C0.912321 12.4251 0.866666 12.3149 0.866666 12.2V1.80001C0.866666 1.68508 0.912321 1.57486 0.993586 1.49359C1.07485 1.41233 1.18507 1.36667 1.3 1.36667H3.9V3.96667C3.9 4.19653 3.99131 4.41697 4.15384 4.5795C4.31637 4.74203 4.53681 4.83334 4.76666 4.83334H8.23333C8.46318 4.83334 8.68362 4.74203 8.84615 4.5795C9.00869 4.41697 9.09999 4.19653 9.09999 3.96667V1.36667H9.78899L12.1333 3.71101V12.2Z" fill="#226AB2"/>
</svg>
