<svg width="25" height="24" viewBox="0 0 25 24" fill="none" xmlns="http://www.w3.org/2000/svg">
<path d="M18.1968 7.77C18.1268 7.76 18.0568 7.76 17.9868 7.77C16.4368 7.72 15.2068 6.45 15.2068 4.89C15.2068 3.3 16.4968 2 18.0968 2C19.6868 2 20.9868 3.29 20.9868 4.89C20.9768 6.45 19.7468 7.72 18.1968 7.77Z" fill="#FABD13"/>
<path d="M21.4568 14.6999C20.3368 15.4499 18.7668 15.7299 17.3168 15.5399C17.6968 14.7199 17.8968 13.8099 17.9068 12.8499C17.9068 11.8499 17.6868 10.8999 17.2668 10.0699C18.7468 9.86991 20.3168 10.1499 21.4468 10.8999C23.0268 11.9399 23.0268 13.6499 21.4568 14.6999Z" fill="#FABD13"/>
<path d="M7.10666 7.77C7.17666 7.76 7.24666 7.76 7.31666 7.77C8.86666 7.72 10.0967 6.45 10.0967 4.89C10.0967 3.29 8.80666 2 7.20666 2C5.61666 2 4.32666 3.29 4.32666 4.89C4.32666 6.45 5.55666 7.72 7.10666 7.77Z" fill="#FABD13"/>
<path d="M7.21687 12.8501C7.21687 13.8201 7.42687 14.7401 7.80687 15.5701C6.39687 15.7201 4.92687 15.4201 3.84687 14.7101C2.26687 13.6601 2.26687 11.9501 3.84687 10.9001C4.91687 10.1801 6.42687 9.8901 7.84687 10.0501C7.43687 10.8901 7.21687 11.8401 7.21687 12.8501Z" fill="#FABD13"/>
<path d="M12.7868 15.87C12.7068 15.86 12.6168 15.86 12.5268 15.87C10.6868 15.81 9.2168 14.3 9.2168 12.44C9.2268 10.54 10.7568 9 12.6668 9C14.5668 9 16.1068 10.54 16.1068 12.44C16.0968 14.3 14.6368 15.81 12.7868 15.87Z" fill="#FABD13"/>
<path d="M9.5368 17.9399C8.0268 18.9499 8.0268 20.6099 9.5368 21.6099C11.2568 22.7599 14.0768 22.7599 15.7968 21.6099C17.3068 20.5999 17.3068 18.9399 15.7968 17.9399C14.0868 16.7899 11.2668 16.7899 9.5368 17.9399Z" fill="#FABD13"/>
</svg>
