<svg width="121" height="44" viewBox="0 0 121 44" fill="none" xmlns="http://www.w3.org/2000/svg">
<path d="M24.4036 0.513095C24.2444 0.520243 23.7574 0.45162 23.6049 0.404442C23.2923 0.307704 22.7533 0.158545 22.7333 0.0813442C22.9792 -0.0844938 24.5332 -0.00872414 24.9697 0.419691C24.6285 0.485931 24.7915 0.495939 24.4036 0.513095Z" fill="white"/>
<path d="M27.0107 11.7824C26.5042 11.792 26.0905 11.3602 26.0824 10.8131C26.0738 10.2603 26.4656 9.82096 26.9759 9.81239C27.4844 9.80381 27.9 10.2437 27.9076 10.7974C27.9147 11.3321 27.5135 11.7729 27.0107 11.7824Z" fill="white"/>
<path d="M25.5168 12.0408C25.5182 12.5526 25.1799 13.0363 24.7281 13.1688C24.1996 13.3242 23.6983 13.0025 23.6077 12.4507C23.5262 11.9541 23.7898 11.4294 24.2344 11.2012C24.8687 10.8762 25.5153 11.2998 25.5168 12.0408Z" fill="white"/>
<path d="M30.3699 9.7824C30.3713 10.3195 30.1507 10.7045 29.8119 10.8241C29.4545 10.9504 29.0256 10.7874 28.7477 10.4067C28.4513 10.0002 28.3317 9.54651 28.4594 9.04899C28.6258 8.39946 29.2534 8.18549 29.7776 8.59627C30.1798 8.91175 30.3494 9.3454 30.3699 9.7824Z" fill="white"/>
<path d="M26.4283 8.40989C25.8531 8.4075 25.3013 7.97766 25.1502 7.41438C24.9901 6.81822 25.3699 6.2883 25.977 6.26114C26.5494 6.23541 27.1427 6.64047 27.3342 7.1885C27.5611 7.8366 27.1336 8.41275 26.4283 8.40989Z" fill="white"/>
<path d="M32.5229 13.296C32.5201 13.5938 32.4629 13.8554 32.2875 14.0785C32.0554 14.3739 31.7304 14.4073 31.4421 14.1671C30.9808 13.7821 30.8522 12.8738 31.1881 12.3705C31.4459 11.9836 31.871 11.954 32.1784 12.3048C32.4305 12.5921 32.5186 12.939 32.5229 13.296Z" fill="white"/>
<path d="M28.3513 14.2143C28.3518 13.9527 28.428 13.7173 28.5863 13.511C28.9084 13.0902 29.4722 13.0873 29.7991 13.5048C30.1198 13.9146 30.1145 14.5536 29.7867 14.9568C29.4879 15.3242 28.988 15.348 28.662 15.0049C28.4533 14.7852 28.3537 14.5184 28.3513 14.2143Z" fill="white"/>
<path d="M28.8181 5.44244C29.2742 5.44578 29.7669 5.85751 29.856 6.31023C29.9146 6.60569 29.7598 6.82157 29.4648 6.8535C29.278 6.87351 29.1064 6.82347 28.9487 6.72483C28.658 6.54374 28.4374 6.30547 28.383 5.94901C28.3358 5.63735 28.5098 5.44006 28.8181 5.44244Z" fill="white"/>
<path d="M32.7661 8.77107C32.7451 9.08464 32.7065 9.39296 32.3896 9.52544C32.0799 9.65459 31.8168 9.50352 31.6005 9.28526C31.1944 8.87591 30.9871 8.37983 31.062 7.79368C31.1334 7.23373 31.5809 7.02977 32.0374 7.35239C32.5211 7.69455 32.7289 8.1954 32.7661 8.77107Z" fill="white"/>
<path d="M23.2508 10.0331C22.7418 10.0307 22.3191 9.61183 22.3239 9.11575C22.3287 8.6392 22.7294 8.25844 23.2236 8.2613C23.7478 8.26464 24.181 8.68638 24.181 9.19247C24.181 9.66187 23.7669 10.036 23.2508 10.0331Z" fill="white"/>
<path d="M22.0551 13.6442C21.5461 13.6418 21.1234 13.2229 21.1282 12.7269C21.133 12.2503 21.5338 11.8696 22.0279 11.8724C22.5521 11.8758 22.9853 12.2975 22.9853 12.8036C22.9858 13.273 22.5717 13.6471 22.0551 13.6442Z" fill="white"/>
<path d="M27.6159 15.5672C27.5897 16.0919 27.3724 16.5074 26.9068 16.7471C26.5913 16.9096 26.2535 16.9211 25.9428 16.7076C25.6092 16.4783 25.4705 16.1452 25.491 15.7464C25.5129 15.3261 25.7078 14.9896 26.0376 14.7442C26.3693 14.4978 26.7362 14.4263 27.1127 14.6327C27.4725 14.8305 27.5935 15.175 27.6159 15.5672Z" fill="white"/>
<path d="M29.7965 18.607C29.7765 19.003 29.6126 19.3166 29.2614 19.4976C29.0231 19.6206 28.7686 19.6292 28.5337 19.4676C28.2821 19.2946 28.1772 19.043 28.1929 18.7418C28.2096 18.4249 28.3564 18.1705 28.6056 17.9856C28.8558 17.7997 29.1332 17.7454 29.4172 17.9017C29.6883 18.0509 29.7798 18.3106 29.7965 18.607Z" fill="white"/>
<path d="M29.1832 24.765C29.167 25.0933 29.0307 25.3535 28.739 25.5036C28.5413 25.6056 28.3301 25.6128 28.1352 25.4789C27.9265 25.3354 27.8393 25.1267 27.8526 24.877C27.8665 24.6139 27.9885 24.4033 28.1948 24.2494C28.4021 24.095 28.6323 24.0502 28.8677 24.1798C29.0936 24.3037 29.1693 24.5191 29.1832 24.765Z" fill="white"/>
<path d="M27.5041 23.1835C27.4879 23.5118 27.3516 23.772 27.0599 23.9221C26.8622 24.0241 26.6511 24.0312 26.4562 23.8973C26.2474 23.7539 26.1602 23.5452 26.1736 23.2955C26.1874 23.0324 26.3094 22.8218 26.5157 22.6678C26.723 22.5134 26.9532 22.4686 27.1886 22.5983C27.4145 22.7222 27.4903 22.938 27.5041 23.1835Z" fill="white"/>
<path d="M26.3178 21.4892C26.3016 21.8175 26.1653 22.0777 25.8737 22.2278C25.6759 22.3298 25.4648 22.337 25.2699 22.203C25.0611 22.0596 24.9739 21.8509 24.9873 21.6012C25.0011 21.3381 25.1231 21.1275 25.3294 20.9736C25.5367 20.8192 25.7669 20.7744 26.0023 20.904C26.2287 21.0279 26.304 21.2438 26.3178 21.4892Z" fill="white"/>
<path d="M25.9929 4.72198C25.4329 4.66479 24.9345 4.41985 24.6066 3.89279C24.2916 3.38669 24.5265 2.94255 25.1117 2.93397C25.6812 2.9254 26.173 3.12984 26.5614 3.5592C26.763 3.78223 26.9269 4.03861 26.7849 4.34979C26.641 4.66574 26.3365 4.70625 25.9929 4.72198Z" fill="white"/>
<path d="M33.2832 10.9123C33.288 10.6731 33.3147 10.4396 33.4295 10.2266C33.5834 9.94015 33.8365 9.88773 34.0919 10.0864C34.2392 10.2008 34.343 10.3514 34.4174 10.5201C34.6518 11.051 34.7457 11.598 34.5456 12.1613C34.4031 12.5626 34.0733 12.6422 33.7779 12.34C33.3947 11.9474 33.3027 11.4398 33.2832 10.9123Z" fill="white"/>
<path d="M30.7692 17.4561C30.7696 17.0401 30.8735 16.6575 31.1356 16.3296C31.5464 15.8164 32.1559 15.9036 32.3584 16.5278C32.5724 17.1874 32.4671 17.814 32.0087 18.3454C31.6641 18.7452 31.2157 18.6833 30.955 18.2234C30.8202 17.9856 30.7696 17.7273 30.7692 17.4561Z" fill="white"/>
<path d="M21.2377 10.2689C21.2277 10.8284 20.7517 11.2925 20.2022 11.2787C19.6871 11.2658 19.2953 10.8293 19.3087 10.2832C19.322 9.73898 19.7843 9.28579 20.3137 9.29722C20.8389 9.30866 21.2473 9.73851 21.2377 10.2689Z" fill="white"/>
<path d="M34.7066 14.9643C34.7037 15.2068 34.6642 15.4699 34.5441 15.7124C34.4721 15.8578 34.3797 15.9984 34.1957 15.9955C34.0204 15.9931 33.9232 15.8597 33.8617 15.7177C33.6234 15.1677 33.6239 14.614 33.8793 14.0693C33.9398 13.9402 34.0361 13.8248 34.1967 13.8229C34.3573 13.821 34.4493 13.9344 34.5193 14.0622C34.667 14.3338 34.7076 14.6311 34.7066 14.9643Z" fill="white"/>
<path d="M22.9606 6.05207C22.4531 6.0454 22.0847 5.85383 21.8031 5.505C21.5791 5.22765 21.4995 4.9055 21.6392 4.56191C21.7778 4.21975 22.0523 4.04391 22.4059 4.00435C22.8787 3.95146 23.3004 4.09013 23.6545 4.40942C23.938 4.66485 24.1091 4.97794 23.9971 5.37871C23.8818 5.79236 23.5606 5.95581 23.1798 6.03158C23.0902 6.04969 22.9973 6.04921 22.9606 6.05207Z" fill="white"/>
<path d="M30.7264 4.69614C30.7274 4.36637 30.9309 4.19862 31.2502 4.26439C31.8092 4.37971 32.4616 5.21986 32.4444 5.80172C32.4349 6.1172 32.2257 6.28113 31.9202 6.21203C31.3574 6.08575 30.7245 5.28181 30.7264 4.69614Z" fill="white"/>
<path d="M28.234 2.13483C28.9812 2.15437 30.0644 3.00786 30.2769 3.74413C30.408 4.19875 30.1807 4.48182 29.7141 4.44608C28.9736 4.38889 27.9571 3.58734 27.7255 2.87776C27.573 2.41313 27.7717 2.12292 28.234 2.13483Z" fill="white"/>
<path d="M29.4244 1.41479C29.5054 1.43766 29.644 1.46006 29.7694 1.51534C30.6858 1.91754 31.4892 2.4832 32.1335 3.26283C32.2684 3.42629 32.4957 3.62977 32.348 3.84517C32.1864 4.08106 31.9162 3.9157 31.7151 3.83421C30.7939 3.4606 30.0124 2.88017 29.3576 2.12532C29.2676 2.02143 29.1904 1.90086 29.1308 1.77601C29.0117 1.52487 29.0989 1.40001 29.4244 1.41479Z" fill="white"/>
<path d="M25.3151 0.973408C26.0395 1.02154 26.7071 1.23646 27.2809 1.69728C27.4724 1.85121 27.7055 2.03039 27.6106 2.31965C27.5148 2.6113 27.2256 2.61034 26.9782 2.61034C26.2367 2.60987 25.5715 2.36206 24.9672 1.93365C24.922 1.90172 24.8791 1.8655 24.8409 1.825C24.6894 1.66392 24.494 1.50285 24.5874 1.25123C24.6799 1.00343 24.9291 0.998664 25.1493 0.97436C25.2045 0.968165 25.2603 0.973408 25.3151 0.973408Z" fill="white"/>
<path d="M34.622 6.86933C34.6258 7.06567 34.5615 7.11189 34.4114 7.03946C34.3232 6.99704 34.2379 6.94034 34.1646 6.87457C33.5474 6.3194 33.0656 5.66224 32.7425 4.89024C32.6896 4.76347 32.5939 4.5943 32.7259 4.49423C32.8602 4.39224 32.9942 4.53807 33.0947 4.62575C33.7442 5.18951 34.2403 5.87001 34.5682 6.67347C34.5977 6.74543 34.6101 6.82453 34.622 6.86933Z" fill="white"/>
<path d="M21.239 6.85443C21.2357 7.3548 20.8268 7.76701 20.3374 7.7632C19.8117 7.75939 19.3776 7.28904 19.3824 6.73005C19.3871 6.17487 19.7383 5.76933 20.2177 5.76552C20.7448 5.76123 21.2428 6.2921 21.239 6.85443Z" fill="white"/>
<path d="M34.2275 7.74567C34.2294 7.71993 34.2271 7.64369 34.2428 7.57125C34.2742 7.42733 34.361 7.37396 34.4782 7.47975C34.5802 7.57173 34.6788 7.67609 34.7503 7.79284C35.2988 8.69352 35.6567 9.66853 35.8149 10.7155C35.8411 10.8899 35.9112 11.1501 35.722 11.224C35.5295 11.2988 35.4241 11.0524 35.3231 10.9061C34.8123 10.166 34.2404 8.52673 34.2275 7.74567Z" fill="white"/>
<path d="M17.0125 8.05055C17.0129 7.5354 17.356 7.15083 17.8092 7.15845C18.3015 7.16655 18.7447 7.63547 18.7499 8.15348C18.7547 8.63336 18.3863 9.01746 17.9188 9.01984C17.418 9.02222 17.0125 8.58857 17.0125 8.05055Z" fill="white"/>
<path d="M16.9561 11.0595C16.9565 10.6487 17.2301 10.3418 17.5918 10.348C17.9844 10.3547 18.338 10.7288 18.3423 11.1415C18.3461 11.5242 18.0521 11.8306 17.6795 11.8325C17.2796 11.8344 16.9561 11.4889 16.9561 11.0595Z" fill="white"/>
<path d="M19.0225 13.3403C19.0229 12.9295 19.2965 12.6226 19.6582 12.6288C20.0508 12.6354 20.4044 13.0095 20.4087 13.4222C20.4125 13.8049 20.1185 14.1113 19.7459 14.1132C19.346 14.1151 19.0225 13.7691 19.0225 13.3403Z" fill="white"/>
<path d="M16.4501 13.1626C16.4506 12.7518 16.7241 12.4449 17.0858 12.4511C17.4785 12.4578 17.8321 12.8319 17.8363 13.2445C17.8402 13.6272 17.5461 13.9336 17.1735 13.9355C16.7732 13.9374 16.4496 13.5915 16.4501 13.1626Z" fill="white"/>
<path d="M13.5092 13.1626C13.5096 12.7518 13.7832 12.4449 14.1449 12.4511C14.5375 12.4578 14.8911 12.8319 14.8954 13.2445C14.8992 13.6272 14.6052 13.9336 14.2326 13.9355C13.8327 13.9374 13.5092 13.5915 13.5092 13.1626Z" fill="white"/>
<path d="M33.0747 18.9893C33.0871 18.4384 33.181 17.9842 33.4007 17.562C33.4521 17.4634 33.5112 17.3662 33.5827 17.2823C33.6971 17.1474 33.8243 17.0002 34.024 17.0607C34.216 17.1184 34.2818 17.2999 34.3032 17.4791C34.3928 18.2378 34.2056 18.9264 33.7552 19.5368C33.6685 19.6545 33.5579 19.7813 33.3897 19.747C33.2077 19.7098 33.1591 19.5445 33.1281 19.3862C33.0981 19.2304 33.0857 19.0717 33.0747 18.9893Z" fill="white"/>
<path d="M22.5998 1.69105C22.9977 1.71345 23.4371 1.83068 23.804 2.14329C23.9684 2.2834 24.1142 2.45305 24.0447 2.69704C23.976 2.93627 23.7716 3.01728 23.5576 3.05111C22.9991 3.13927 22.4978 2.99059 22.0746 2.61317C21.8959 2.454 21.7115 2.26148 21.8125 1.98699C21.9088 1.72536 22.1618 1.71726 22.391 1.692C22.4363 1.68676 22.4825 1.69105 22.5998 1.69105Z" fill="white"/>
<path d="M31.7843 20.4714C31.7366 20.9565 31.6022 21.4249 31.1934 21.7604C30.8826 22.0149 30.5948 21.9258 30.4609 21.5474C30.2817 21.0408 30.5005 20.2479 30.9217 19.9129C31.0814 19.7861 31.2586 19.6598 31.4759 19.7747C31.7447 19.9171 31.7685 20.1826 31.7843 20.4714Z" fill="white"/>
<path d="M36.109 14.23C36.1252 14.6885 36.1195 15.1469 35.9603 15.5844C35.9169 15.704 35.876 15.8679 35.7297 15.8665C35.5791 15.8651 35.5433 15.6959 35.5143 15.5748C35.2946 14.6632 35.2703 13.7473 35.479 12.8295C35.4852 12.8023 35.4947 12.7751 35.5066 12.7504C35.5572 12.645 35.5705 12.4863 35.7149 12.4854C35.8726 12.484 35.9065 12.6455 35.947 12.7637C36.0418 13.0382 36.0899 13.3246 36.1061 13.6143C36.1181 13.8188 36.109 14.0246 36.109 14.23Z" fill="white"/>
<path d="M27.9681 0.860029C28.2121 1.0435 28.5156 1.12594 28.7472 1.32895C28.8354 1.40663 28.9722 1.4824 28.9212 1.61821C28.8692 1.75546 28.7148 1.72401 28.6004 1.71209C27.8451 1.63251 27.1613 1.3218 26.4765 1.01777C26.2492 0.916737 26.0314 0.791406 25.816 0.665122C25.7178 0.607459 25.6011 0.553133 25.571 0.400162C25.7235 0.279119 25.898 0.309617 26.069 0.32439C26.6361 0.372521 27.1541 0.613178 27.6974 0.755665C27.7103 0.752329 27.7227 0.749469 27.7355 0.746133C27.8194 0.737079 27.8856 0.778062 27.9495 0.82524C27.9557 0.836201 27.9619 0.848115 27.9681 0.860029Z" fill="white"/>
<path d="M16.0112 8.91405C15.9988 9.1466 15.9669 9.34818 15.8654 9.53308C15.6257 9.97055 15.1248 9.98961 14.8613 9.57025C14.6359 9.21189 14.6569 8.66386 14.9094 8.32361C15.2159 7.91044 15.6729 7.95619 15.8978 8.42225C15.9764 8.58523 15.9979 8.76108 16.0112 8.91405Z" fill="white"/>
<path d="M15.8849 11.3536C15.8725 11.5862 15.8406 11.7878 15.7391 11.9727C15.4993 12.4101 14.9985 12.4292 14.735 12.0098C14.5096 11.6515 14.5305 11.1034 14.7831 10.7632C15.0895 10.35 15.5465 10.3958 15.7715 10.8618C15.8501 11.0248 15.8715 11.2007 15.8849 11.3536Z" fill="white"/>
<path d="M29.2125 22.0606C29.2149 22.5776 28.8451 23.0394 28.4195 23.0503C28.0745 23.0594 27.8248 22.7673 27.8229 22.3532C27.821 21.8447 28.2022 21.3905 28.6363 21.3843C28.9861 21.3796 29.2106 21.6426 29.2125 22.0606Z" fill="white"/>
<path d="M27.9417 19.8271C27.9441 20.3442 27.5743 20.8059 27.1488 20.8169C26.8037 20.8259 26.554 20.5338 26.5521 20.1197C26.5502 19.6112 26.9315 19.1571 27.3656 19.1509C27.7159 19.1461 27.9398 19.4092 27.9417 19.8271Z" fill="white"/>
<path d="M26.2119 18.5426C26.2143 19.0597 25.8445 19.5215 25.4189 19.5324C25.0739 19.5415 24.8242 19.2494 24.8223 18.8352C24.8204 18.3268 25.2016 17.8726 25.6357 17.8664C25.9855 17.8617 26.2095 18.1247 26.2119 18.5426Z" fill="white"/>
<path d="M20.4056 2.82576C20.7554 2.85149 21.0771 3.00208 21.2763 3.35997C21.4979 3.75788 21.2925 4.17105 20.8479 4.23014C20.4195 4.28732 19.869 3.92896 19.7428 3.51151C19.6236 3.11836 19.9034 2.80956 20.4056 2.82576Z" fill="white"/>
<path d="M17.143 5.75176C17.1353 5.80561 17.1296 5.89996 17.1072 5.99003C17.0229 6.32981 16.7565 6.56236 16.4701 6.55378C16.1689 6.54473 15.9535 6.31742 15.8873 5.94381C15.8391 5.67265 15.8901 5.41913 16.0331 5.19039C16.3023 4.75959 16.747 4.76912 17.0076 5.20278C17.1015 5.36004 17.1368 5.53207 17.143 5.75176Z" fill="white"/>
<path d="M13.809 9.12002C13.7952 9.52652 13.7032 9.86295 13.4678 10.1479C13.3554 10.2842 13.2157 10.3762 13.0351 10.3409C12.8354 10.3019 12.7497 10.1374 12.7139 9.95922C12.6181 9.48649 12.7111 9.04902 13.0022 8.66349C13.1128 8.51671 13.2534 8.40663 13.4502 8.44761C13.6637 8.49193 13.7318 8.67254 13.779 8.85649C13.8043 8.95418 13.8028 9.0595 13.809 9.12002Z" fill="white"/>
<path d="M13.1565 11.9154C13.1441 12.2709 13.064 12.5645 12.8586 12.8137C12.7604 12.9329 12.6384 13.0129 12.4802 12.9824C12.3058 12.9481 12.231 12.8047 12.1995 12.6488C12.1162 12.2357 12.1972 11.8535 12.4516 11.5166C12.5484 11.3884 12.6713 11.2921 12.8434 11.3278C13.0297 11.3664 13.0897 11.5242 13.1307 11.6853C13.1522 11.7706 13.1507 11.8621 13.1565 11.9154Z" fill="white"/>
<path d="M19.1876 4.85104C19.1838 5.22942 18.9212 5.52631 18.5886 5.52821C18.1969 5.53012 17.8499 5.12553 17.848 4.66471C17.8461 4.27775 18.0844 4.00612 18.4199 4.01232C18.8321 4.01994 19.1919 4.4131 19.1876 4.85104Z" fill="white"/>
<path d="M22.5346 0.595016C23.0321 0.625515 23.5773 0.698904 24.0862 0.940512C24.2187 1.00342 24.3826 1.07394 24.3617 1.24979C24.3397 1.43278 24.1615 1.44946 24.0157 1.46376C23.2461 1.53905 22.5446 1.31794 21.8827 0.940035C21.8198 0.904294 21.7535 0.85378 21.7664 0.765619C21.7797 0.674122 21.8631 0.661256 21.9317 0.641242C22.11 0.588821 22.2949 0.596446 22.5346 0.595016Z" fill="white"/>
<path d="M15.1486 6.11489C15.1339 6.43989 15.0309 6.7444 14.7555 6.95932C14.4753 7.17806 14.1731 7.08513 14.0416 6.75298C13.8934 6.37889 14.0531 5.80036 14.3728 5.55637C14.5248 5.44057 14.6931 5.39959 14.8641 5.49633C15.0934 5.62547 15.141 5.85374 15.1486 6.11489Z" fill="white"/>
<path d="M34.7969 19.4582C34.5291 18.9611 35.0142 17.0354 35.4717 16.7795C35.8053 17.1988 35.3173 19.1346 34.7969 19.4582Z" fill="white"/>
<path d="M11.927 9.11948C11.8998 9.48213 11.8298 9.81857 11.6053 10.0978C11.5191 10.205 11.4166 10.3123 11.2551 10.2708C11.0878 10.2279 11.0211 10.0921 11.0011 9.93819C10.9415 9.48261 11.0521 9.06706 11.3203 8.69869C11.4018 8.58718 11.5005 8.47042 11.6625 8.51141C11.8312 8.5543 11.877 8.70345 11.9051 8.85309C11.9217 8.94411 11.9208 9.03847 11.927 9.11948Z" fill="white"/>
<path d="M11.2214 11.7943C11.1943 12.157 11.1242 12.4934 10.8998 12.7727C10.8135 12.8799 10.711 12.9871 10.5495 12.9457C10.3822 12.9028 10.3155 12.767 10.2955 12.613C10.2359 12.1575 10.3465 11.7419 10.6148 11.3735C10.6963 11.262 10.7949 11.1453 10.9569 11.1863C11.1256 11.2292 11.1714 11.3783 11.1995 11.5279C11.2162 11.6194 11.2152 11.7138 11.2214 11.7943Z" fill="white"/>
<path d="M13.2618 6.13784C13.2337 6.50382 13.1102 6.86933 12.8424 7.17337C12.749 7.27964 12.6313 7.37018 12.4788 7.31633C12.3139 7.25867 12.2729 7.1038 12.2748 6.95178C12.2801 6.54624 12.4159 6.18311 12.667 5.86811C12.7662 5.74373 12.8829 5.61411 13.0616 5.67892C13.2518 5.7485 13.2594 5.92816 13.2618 6.13784Z" fill="white"/>
<path d="M33.1777 21.0542C33.0962 21.5431 32.8984 22.0454 32.4872 22.4423C32.4352 22.4924 32.3738 22.551 32.2923 22.5086C32.2165 22.469 32.2055 22.3856 32.2103 22.3132C32.2494 21.749 32.409 21.2314 32.8046 20.8135C32.8727 20.7416 32.9551 20.6663 33.0714 20.7144C33.1462 20.7449 33.1763 20.8278 33.1777 21.0542Z" fill="white"/>
<path d="M10.4675 8.63336C10.4227 9.06701 10.2902 9.48876 9.98809 9.8395C9.90469 9.93623 9.80557 10.0497 9.65927 9.98389C9.51202 9.91765 9.52727 9.77135 9.54966 9.64125C9.624 9.21284 9.78126 8.81587 10.0229 8.45656C10.0934 8.35219 10.1782 8.21876 10.3298 8.27404C10.4775 8.32742 10.4632 8.47991 10.4675 8.63336Z" fill="white"/>
<path d="M10.9459 6.79538C11.0579 6.33551 11.2828 5.90471 11.6893 5.59543C11.8632 5.46295 12.0415 5.55779 12.0157 5.77318C11.9542 6.29262 11.7265 6.73057 11.3109 7.05414C11.2332 7.11466 11.1398 7.12896 11.0521 7.07511C10.9645 7.02126 10.9425 6.93072 10.9459 6.79538Z" fill="white"/>
<path d="M20.5392 0.869045C20.7255 0.897638 21.0367 0.84903 21.0748 1.13543C21.1149 1.4347 20.8056 1.49904 20.5811 1.56528C20.3214 1.64153 20.0536 1.63485 19.7924 1.54622C19.6666 1.50333 19.5341 1.44995 19.5175 1.30318C19.4994 1.14544 19.6385 1.08492 19.7538 1.02964C19.9907 0.916223 20.2428 0.868568 20.5392 0.869045Z" fill="white"/>
<path d="M20.7827 0.13282C20.969 0.141398 21.2802 0.126625 21.3184 0.21288C21.3584 0.302947 21.0491 0.32201 20.8247 0.342025C20.5649 0.364899 20.2971 0.362991 20.036 0.336305C19.9102 0.323438 19.7777 0.307236 19.761 0.263393C19.7429 0.216215 19.882 0.198106 19.9974 0.181427C20.2342 0.147116 20.4863 0.13282 20.7827 0.13282Z" fill="white"/>
<path d="M16.3875 3.04264C16.3918 2.65998 16.6568 2.32068 16.9451 2.32782C17.17 2.33354 17.3492 2.56229 17.3468 2.84059C17.3439 3.19466 17.0461 3.54969 16.7616 3.53873C16.5343 3.53015 16.3842 3.33095 16.3875 3.04264Z" fill="white"/>
<path d="M14.7116 3.99577C14.7135 3.71747 15.0728 3.18898 15.3335 3.08128C15.5503 2.99169 15.7218 3.09367 15.75 3.32956C15.7928 3.69126 15.3883 4.22547 15.0289 4.28218C14.8374 4.3122 14.7101 4.19735 14.7116 3.99577Z" fill="white"/>
<path d="M18.3562 2.37697C18.0441 2.37983 17.7739 2.13965 17.7791 1.86325C17.7839 1.62165 17.9912 1.44294 18.269 1.44104C18.6045 1.43865 18.91 1.66549 18.9176 1.92187C18.9247 2.1692 18.6717 2.37411 18.3562 2.37697Z" fill="white"/>
<path d="M30.741 23.4368C30.7057 23.7628 30.5594 24.0868 30.2778 24.3418C30.202 24.4104 30.1158 24.479 30.0047 24.4261C29.9004 24.3761 29.8703 24.2708 29.867 24.1669C29.8537 23.7604 29.9861 23.4125 30.2992 23.149C30.3841 23.078 30.4865 23.0165 30.6047 23.0723C30.7353 23.1347 30.7429 23.2586 30.741 23.4368Z" fill="white"/>
<path d="M8.92923 12.1862C8.9359 11.905 8.96068 11.6262 9.08268 11.3675C9.127 11.2736 9.18323 11.1754 9.30237 11.184C9.41912 11.1926 9.46487 11.2931 9.49823 11.3941C9.62213 11.7682 9.58305 12.1323 9.42055 12.484C9.36193 12.6108 9.28712 12.7566 9.11985 12.7213C8.95449 12.6861 8.94924 12.5202 8.93114 12.382C8.92256 12.3177 8.92923 12.2515 8.92923 12.1862Z" fill="white"/>
<path d="M14.12 3.49341C14.1172 3.81842 13.6349 4.33881 13.3147 4.3593C13.1226 4.37169 13.0216 4.27114 13.0788 4.08624C13.197 3.70309 13.4429 3.41717 13.8098 3.26038C13.9828 3.18652 14.1219 3.3047 14.12 3.49341Z" fill="white"/>
<path d="M33.295 22.5C33.3508 21.9405 33.8993 20.8659 34.2357 20.6329C34.3396 21.0131 33.7478 22.2069 33.295 22.5Z" fill="white"/>
<path d="M17.9613 1.12263C17.8336 1.10023 17.6868 1.12406 17.653 0.971567C17.6229 0.835274 17.7487 0.781901 17.8402 0.727575C18.0714 0.591283 18.3173 0.491208 18.586 0.464045C18.6976 0.453085 18.8167 0.452132 18.8634 0.584611C18.9053 0.703271 18.8219 0.778088 18.7404 0.83861C18.5046 1.0135 18.2334 1.08927 17.9613 1.12263Z" fill="white"/>
<path d="M31.7382 23.5409C31.8035 23.9936 31.2402 24.8586 30.7532 25.0668C30.9686 24.4611 31.2116 23.9431 31.7382 23.5409Z" fill="white"/>
<path d="M15.4417 2.47794C15.2977 2.4584 15.2215 2.37072 15.2801 2.19439C15.3449 1.99758 15.7338 1.70498 15.9411 1.69497C16.0926 1.68783 16.1674 1.75359 16.1365 1.91418C16.0936 2.13578 15.6871 2.47889 15.4417 2.47794Z" fill="white"/>
<path d="M36.268 15.0444C36.2218 16.0089 36.0927 16.9629 35.8201 17.8941C35.9073 16.9358 36.0493 15.9855 36.268 15.0444Z" fill="white"/>
<path d="M27.6979 0.755267C27.4501 0.577039 27.1465 0.518423 26.8944 0.347343C27.6831 0.58657 28.4499 0.881075 29.1656 1.30901C28.7663 1.15938 28.3674 1.00927 27.9681 0.85963L27.9752 0.866778C27.8856 0.813405 27.7789 0.802445 27.6893 0.749548L27.6979 0.755267Z" fill="white"/>
<path d="M34.3472 21.4407C34.6093 20.8836 34.8709 20.3265 35.133 19.7694C34.9948 20.387 34.707 20.9331 34.4091 21.475C34.3472 21.5312 34.3295 21.495 34.3472 21.4407Z" fill="white"/>
<path d="M29.5876 25.6356C29.6071 25.9049 29.4675 26.136 29.1963 26.2818C29.1334 25.9821 29.3074 25.6947 29.5876 25.6356Z" fill="white"/>
<path d="M31.4099 25.003C31.6377 24.5874 31.9703 24.2586 32.2963 23.9245C32.0628 24.3353 31.7921 24.7151 31.4042 24.9977L31.4099 25.003Z" fill="white"/>
<path d="M32.6393 23.7476C32.8018 23.4335 33.0386 23.1843 33.2707 22.9313C33.1044 23.242 32.9114 23.5293 32.635 23.7433L32.6393 23.7476Z" fill="white"/>
<path d="M29.9635 26.0674C29.8263 26.3519 29.5546 26.502 29.3292 26.6979C29.5337 26.4806 29.6957 26.2199 29.9687 26.0731L29.9635 26.0674Z" fill="white"/>
<path d="M31.4042 24.9975L31.4096 25.0029C31.4096 25.0024 31.4042 24.9975 31.4042 24.9975Z" fill="white"/>
<path d="M29.9682 26.0728C29.9682 26.0728 29.9628 26.0674 29.9633 26.0674C29.9637 26.0674 29.9682 26.0728 29.9682 26.0728Z" fill="white"/>
<path d="M27.689 0.749481C27.799 0.751387 27.8967 0.785222 27.9749 0.866711C27.8653 0.864328 27.7685 0.829541 27.689 0.749481Z" fill="white"/>
<path d="M1.09949 18.2036C0.913165 18.4013 0.726835 18.5991 0.540506 18.7973C0.527163 18.7792 0.51382 18.7606 0.5 18.7425C0.834059 18.3341 1.17288 17.9315 1.49932 17.5126C1.57509 17.4154 1.79763 17.3734 1.64466 17.1175C1.63752 17.1056 1.70947 17.0136 1.74664 16.9617C2.55201 15.827 3.56085 15.2104 4.74555 15.1208C5.62525 15.0545 6.48971 15.1823 7.25885 15.8227C7.62293 16.1258 8.0137 16.3836 8.35348 16.7258C8.69182 17.067 9.04256 17.4006 9.2856 17.8857C9.45382 18.2217 9.68876 18.5014 9.88081 18.8188C10.7572 20.268 11.4625 21.8534 12.0715 23.5051C12.986 25.9846 13.8633 28.486 14.7683 30.9712C15.5655 33.16 16.4257 35.3058 17.5136 37.2873C18.2003 38.5383 18.9743 39.6882 19.9073 40.6517C21.5157 42.3115 23.3509 43.0735 25.4086 42.8782C26.0419 42.8181 26.6681 42.637 27.2971 42.505C27.4272 42.4779 27.554 42.4235 27.6822 42.3816C27.7017 42.413 27.7213 42.4445 27.7408 42.476C27.7008 42.4926 27.6584 42.5031 27.6212 42.5274C26.669 43.1493 25.685 43.6425 24.6228 43.8698C22.942 44.2292 21.3718 43.8379 19.8916 42.7862C18.6297 41.8893 17.5918 40.6494 16.653 39.2631C15.3311 37.3116 14.2464 35.1486 13.28 32.8912C12.4823 31.0284 11.7384 29.1284 10.9702 27.2446C10.9349 27.1579 10.9001 27.0706 10.8682 26.9911C10.8387 26.9977 10.8277 26.9977 10.8182 27.003C10.8091 27.0077 10.7967 27.0154 10.7943 27.0254C10.7877 27.0521 10.7815 27.0811 10.7815 27.1088C10.7767 31.6364 10.7719 36.1641 10.7672 40.6913C10.7672 40.7046 10.76 40.7185 10.7562 40.7318C10.5108 40.8338 6.44777 40.8138 6.00554 40.6984C6.00554 40.5412 6.00554 40.373 6.00554 40.2047C6.00554 33.3906 6.00554 26.5765 6.00554 19.7623C6.00554 19.5898 6.00744 19.4173 6.00458 19.2448C5.99982 18.9494 5.96265 18.6753 5.71103 18.5495C5.67148 18.5295 5.63812 18.4904 5.6019 18.4604C5.61477 18.4352 5.62763 18.4104 5.6405 18.3851C5.74391 18.4394 5.84732 18.4933 5.95407 18.5491C6.04652 18.2036 5.74391 18.0225 5.76488 17.7146C5.59332 17.5416 5.1997 17.8523 5.19255 17.2872C5.37697 17.3081 5.55091 17.3281 5.72485 17.3477L5.71484 17.3358C5.83589 17.4182 5.9574 17.5011 6.06892 17.5769C6.15326 17.4549 6.20759 17.3753 6.26573 17.291C6.24571 17.26 6.22999 17.2104 6.20378 17.199C5.75487 16.9955 5.31931 16.7148 4.83562 16.6872C4.3362 16.6591 3.83773 16.6734 3.3426 16.8302C2.64493 17.0508 2.05402 17.5259 1.46834 18.0239C1.41592 18.0687 1.35254 18.0925 1.29393 18.1259L1.30012 18.134C1.34635 18.0673 1.39829 18.0048 1.43737 17.9315C1.46262 17.8843 1.46834 17.8204 1.48311 17.7642C1.65562 17.788 1.73854 17.6303 1.80431 17.4463C1.70042 17.5559 1.59653 17.6655 1.49265 17.7756C1.34587 17.8609 1.20958 17.9605 1.15906 18.1778C1.14 18.195 1.12046 18.2031 1.09949 18.2036ZM8.79285 18.1855C8.83336 17.9067 8.78952 17.7513 8.6537 17.6265C8.54505 17.5269 8.45641 17.393 8.353 17.2833C7.73826 16.6324 7.10159 16.0462 6.31386 15.7551C5.75487 15.5482 5.19446 15.4768 4.62403 15.5054C4.39815 15.5168 4.14987 15.5087 3.94638 15.7122C5.90689 15.381 7.44947 16.3965 8.79285 18.1855ZM6.6098 17.6579C6.6198 17.6203 6.62933 17.5831 6.63934 17.5454C6.55213 17.5102 6.46493 17.4744 6.37772 17.4392C6.36866 17.474 6.35961 17.5092 6.35055 17.544C6.43633 17.5821 6.52306 17.6198 6.6098 17.6579Z" fill="white"/>
<path d="M18.7246 14.4835C20.3344 14.4607 21.8979 14.4383 23.4515 14.4159C23.5244 14.7747 23.5482 35.96 23.4848 36.5762C23.3328 36.5967 23.2451 36.4452 23.1455 36.348C22.3988 35.6179 21.7902 34.7186 21.2455 33.746C20.281 32.0243 19.5242 30.149 18.8047 28.2486C18.7356 28.0661 18.7279 27.8321 18.7275 27.6219C18.7232 24.0859 18.7246 20.5495 18.7246 17.0135C18.7246 16.3378 18.7246 15.6625 18.7246 14.9868C18.7246 14.8448 18.7246 14.7032 18.7246 14.4835Z" fill="white"/>
<path d="M7.03198 13.5648C7.25787 13.5105 7.48184 13.4352 7.70963 13.4052C8.68798 13.277 9.60152 13.5296 10.4421 14.1982C11.2747 14.8606 11.9314 15.7569 12.5156 16.7486C13.3834 18.2221 14.082 19.8285 14.701 21.4884C15.5655 23.8063 16.3937 26.1466 17.2425 28.4745C18.1064 30.8439 19.01 33.1866 20.1637 35.3525C20.9705 36.867 21.8812 38.2618 23.0506 39.3464C24.3173 40.5211 25.7255 41.1178 27.2961 41.0434C27.3367 41.0415 27.3772 41.0501 27.4234 41.1301C27.1865 41.1678 26.9502 41.2145 26.7124 41.2417C24.1795 41.5304 22.0236 40.4773 20.2009 38.2313C19.1415 36.9261 18.2956 35.4125 17.5484 33.8013C16.5329 31.6121 15.7213 29.2947 14.9326 26.962C14.1359 24.6045 13.3424 22.2446 12.5175 19.9029C12.0838 18.672 11.5582 17.4992 10.9306 16.4079C10.4827 15.6287 9.98418 14.9144 9.34704 14.3778C8.68893 13.8236 7.97316 13.5529 7.18162 13.6587C7.14826 13.663 7.11442 13.662 7.08107 13.6601C7.07106 13.6597 7.06105 13.6487 7.05152 13.6425C7.04533 13.6168 7.03865 13.5906 7.03198 13.5648Z" fill="white"/>
<path d="M4.28589 17.8862C4.15245 17.9395 4.01616 17.9939 3.87844 18.0487C3.85128 17.7256 3.64017 17.9433 3.53723 17.8471C3.8508 17.6317 4.24061 17.6674 4.5537 17.8852C4.68285 17.9748 4.85059 17.9724 5.00023 18.0139C5.07933 18.0358 5.15749 18.063 5.2833 18.103C4.80866 18.3174 4.45792 18.2307 4.28589 17.8862Z" fill="white"/>
<path d="M4.974 17.2746C4.80816 17.2746 4.62803 17.3294 4.47982 17.2636C4.12527 17.1069 3.79645 17.2679 3.45763 17.3189C3.38043 17.3304 3.30323 17.3365 3.22412 17.2941C3.79836 17.063 4.37593 16.9429 4.974 17.2746Z" fill="white"/>
<path d="M2.60278 18.0424C2.85202 17.5912 3.22992 17.6464 3.58113 17.5912C3.53395 17.6259 3.48964 17.6741 3.43864 17.6931C3.20704 17.7799 2.96019 17.8099 2.77005 18.0377C2.74193 18.071 2.66902 18.0424 2.60278 18.0424Z" fill="white"/>
<path d="M1.40295 19.1737C1.4935 18.844 1.62264 18.7301 1.9729 18.6648C1.78276 18.8344 1.5931 19.0041 1.40295 19.1737Z" fill="white"/>
<path d="M3.97791 17.4624C4.1142 17.4247 4.25049 17.3876 4.41252 17.3428C4.22047 17.6111 4.20522 17.6168 3.97791 17.4624Z" fill="white"/>
<path d="M5.7239 17.3477C5.7239 17.2977 5.7239 17.2471 5.7239 17.1447C5.82874 17.1904 5.9231 17.2314 6.01698 17.2724C6.0146 17.3019 6.01174 17.3315 6.00935 17.361C5.91119 17.3529 5.81302 17.3448 5.71437 17.3363C5.7139 17.3358 5.7239 17.3477 5.7239 17.3477Z" fill="white"/>
<path d="M1.09934 18.2036C1.12031 18.2031 1.14033 18.1945 1.15796 18.1788C1.20514 18.164 1.25184 18.1492 1.29902 18.1349L1.29282 18.1268C1.23945 18.214 1.18608 18.3017 1.1327 18.3889C1.1165 18.3804 1.09982 18.3718 1.08362 18.3632C1.08886 18.3098 1.0941 18.2569 1.09934 18.2036Z" fill="white"/>
<path d="M1.02946 19.5164C0.988005 19.5664 0.947022 19.6169 0.905562 19.667C0.894602 19.6522 0.883641 19.637 0.872681 19.6222C0.91414 19.5722 0.9556 19.5226 0.997059 19.4726C1.00802 19.4869 1.01898 19.5016 1.02946 19.5164Z" fill="white"/>
<path d="M8.79301 18.1854C7.44962 16.3964 5.90704 15.3809 3.94653 15.7121C4.14954 15.5086 4.3983 15.5167 4.62418 15.5053C5.19461 15.4767 5.7555 15.5482 6.31401 15.755C7.10174 16.0462 7.73841 16.6323 8.35316 17.2833C8.45657 17.3929 8.54568 17.5268 8.65386 17.6264C8.78967 17.7513 8.83351 17.9066 8.79301 18.1854Z" fill="white"/>
<path d="M6.60969 17.6579C6.52296 17.6198 6.43671 17.5821 6.34998 17.544C6.35903 17.5092 6.36808 17.4739 6.37714 17.4391C6.46435 17.4744 6.55155 17.5101 6.63876 17.5454C6.62923 17.5831 6.61922 17.6202 6.60969 17.6579Z" fill="white"/>
<path d="M1.49124 17.7765C1.59513 17.6669 1.69902 17.5573 1.80338 17.4477C1.73762 17.6316 1.6547 17.7894 1.48267 17.766C1.48314 17.766 1.49124 17.7765 1.49124 17.7765Z" fill="white"/>
<path d="M1.29926 18.1348C1.25208 18.1496 1.20538 18.1644 1.1582 18.1787C1.20872 17.9614 1.34501 17.8618 1.49179 17.7765C1.49131 17.776 1.48321 17.766 1.48273 17.7655C1.46748 17.8213 1.46176 17.8851 1.43651 17.9323C1.39743 18.0057 1.34549 18.0677 1.29926 18.1348Z" fill="white"/>
<path d="M45.2661 25.7424L45.472 22.7582L45.6207 19.3066L45.7126 16.1667V15.1068C46.8816 15.1173 48.1006 15.1226 49.3696 15.1226L50.7331 15.1149L52.7851 15.1073L52.6998 16.7905L52.0254 16.7514C51.841 16.7409 51.5851 16.7333 51.2587 16.728C50.9322 16.7228 50.5982 16.7204 50.2575 16.7204C49.5193 16.7204 49.0423 16.7218 48.8269 16.7242C48.6115 16.7271 48.286 16.7361 47.8504 16.7514L47.7346 19.5173C48.3832 19.533 49.037 19.5406 49.6951 19.5406C50.1498 19.5406 50.917 19.5249 51.9964 19.4939C51.9583 19.9666 51.9254 20.5328 51.8968 21.1923C50.6335 21.1766 49.9091 21.169 49.7247 21.169C49.1662 21.169 48.4704 21.1847 47.6374 21.2157L47.5221 24.1297L48.3031 24.1374C48.5305 24.1374 49.0513 24.1321 49.8653 24.1216L51.4064 24.0907L52.4362 24.0363C52.3891 24.6392 52.3557 25.2077 52.3366 25.7429C51.1057 25.7324 49.9958 25.7271 49.0065 25.7271L46.6705 25.7348L45.2661 25.7424Z" fill="white"/>
<path d="M54.0345 25.7424C54.1051 24.8646 54.1909 23.2867 54.2924 21.0088C54.3939 18.731 54.4563 16.7638 54.4796 15.1068C54.9724 15.1173 55.3231 15.1226 55.5314 15.1226C55.8106 15.1226 56.1518 15.1173 56.5545 15.1068L56.3849 17.9509L56.1375 24.2932L56.1094 25.7424C55.721 25.7319 55.3918 25.7267 55.1216 25.7267C55.032 25.7271 54.6693 25.7324 54.0345 25.7424Z" fill="white"/>
<path d="M61.6454 25.7423C61.735 24.8126 61.8031 23.7685 61.8503 22.61L62.0128 18.7919C62.0695 17.4104 62.0976 16.1819 62.0976 15.1063C62.6461 15.1168 63.1122 15.122 63.4953 15.122C63.7794 15.122 64.193 15.1168 64.7367 15.1063C65.2719 16.1295 66.011 17.4647 66.9536 19.1112C67.8962 20.7577 68.6568 22.1216 69.2349 23.2019L69.495 15.9712C69.4998 15.7997 69.5022 15.5114 69.5022 15.1063C69.9478 15.1168 70.2842 15.122 70.5115 15.122C70.6016 15.122 70.9333 15.1168 71.5065 15.1063L71.3298 17.9656L71.1105 22.8588L71.0257 25.7419C70.5334 25.7314 70.1146 25.7261 69.7691 25.7261C69.4946 25.7261 69.0495 25.7314 68.4343 25.7419C68.1974 25.2796 68.0178 24.937 67.8943 24.7135C67.7004 24.3708 67.2858 23.6641 66.6515 22.5943C66.235 21.888 65.7141 20.984 65.0889 19.8827C64.6295 19.0726 64.2364 18.3659 63.9099 17.7635C63.8723 18.6051 63.8137 20.1658 63.7341 22.4461C63.7012 23.3758 63.6755 24.4747 63.6569 25.7419C63.2113 25.7314 62.8892 25.7261 62.69 25.7261C62.5337 25.7271 62.1858 25.7323 61.6454 25.7423Z" fill="white"/>
<path d="M73.5026 19.5558C73.5688 19.1817 73.6103 18.9196 73.627 18.769C73.6437 18.6185 73.6732 18.3897 73.7156 18.0833C74.3594 17.917 74.9275 17.8002 75.4197 17.7326C75.912 17.6649 76.3876 17.6311 76.847 17.6311C77.3679 17.6311 77.8458 17.6973 78.2814 17.8298C78.717 17.9623 79.0577 18.1738 79.3036 18.465C79.5495 18.7562 79.6729 19.1741 79.6729 19.7193C79.6729 20.0152 79.6353 20.7701 79.56 21.9829C79.4847 23.1957 79.4399 24.449 79.4261 25.7423C79.0658 25.7319 78.7346 25.7266 78.4315 25.7266C78.1423 25.7266 77.8039 25.7319 77.4155 25.7423C77.4779 25.1138 77.528 24.3866 77.5661 23.5607L77.6595 21.6207C77.4794 21.7508 77.3421 21.8413 77.2473 21.8933C77.1525 21.9452 77.0462 21.9934 76.9275 22.0372C76.8089 22.0815 76.6006 22.1492 76.3023 22.2397C76.004 22.3308 75.7648 22.4099 75.5846 22.4775C75.4045 22.5452 75.2425 22.6214 75.0981 22.7072C74.9537 22.793 74.8317 22.8893 74.7321 22.9955C74.6325 23.1023 74.5605 23.2138 74.5153 23.3305C74.47 23.4473 74.4476 23.5736 74.4476 23.7085C74.4476 23.9267 74.5057 24.1149 74.6215 24.2732C74.7373 24.4318 74.8832 24.5419 75.0581 24.6044C75.2329 24.6668 75.4388 24.6978 75.6757 24.6978C75.8272 24.6978 75.9868 24.6849 76.1551 24.6587C76.3228 24.6329 76.5492 24.5677 76.8332 24.4638C76.7336 24.7597 76.6178 25.2015 76.4853 25.7881C76.1493 25.8505 75.882 25.8896 75.6828 25.9049C75.4836 25.9201 75.2997 25.9282 75.1291 25.9282C74.5329 25.9282 74.043 25.84 73.6594 25.6632C73.2762 25.4869 72.9932 25.2062 72.8111 24.8217C72.6286 24.4371 72.5376 24.0501 72.5376 23.6608C72.5376 23.4373 72.5733 23.2167 72.6439 22.9984C72.7149 22.7801 72.8192 22.5805 72.9565 22.3984C73.0937 22.2169 73.2715 22.0415 73.4893 21.8723C73.707 21.7036 74.022 21.5402 74.4343 21.3815C74.8465 21.2233 75.3912 21.0631 76.0683 20.9021C76.2485 20.8606 76.4353 20.8101 76.6297 20.7501C76.8237 20.6905 76.979 20.6319 77.0953 20.5747C77.2116 20.5175 77.3121 20.4436 77.3969 20.3526C77.4822 20.2616 77.5451 20.1668 77.5852 20.0681C77.6252 19.9695 77.6457 19.8684 77.6457 19.7641C77.6457 19.5615 77.5852 19.39 77.4646 19.2499C77.344 19.1098 77.1877 19.0121 76.9957 18.9578C76.8036 18.9034 76.5916 18.8758 76.3595 18.8758C75.497 18.8782 74.5448 19.1041 73.5026 19.5558Z" fill="white"/>
<path d="M81.0071 25.5946L80.8508 23.8805C81.3145 24.0883 81.7077 24.2327 82.0293 24.3127C82.351 24.3932 82.6469 24.4333 82.9167 24.4333C83.1864 24.4333 83.4137 24.398 83.5981 24.328C83.7825 24.2579 83.9198 24.154 84.0098 24.0163C84.0999 23.8786 84.1447 23.7347 84.1447 23.5841C84.1447 23.5164 84.1385 23.4544 84.1271 23.3973C84.1152 23.3401 84.0937 23.2805 84.0632 23.2181C84.0322 23.1557 83.997 23.0975 83.957 23.0427C83.9164 22.9884 83.8612 22.926 83.7902 22.8559C83.7192 22.7859 83.6172 22.6963 83.4847 22.5871L83.1016 22.2521C82.7322 21.9352 82.4506 21.686 82.2566 21.5039C82.0627 21.3224 81.8992 21.1365 81.7668 20.9469C81.6343 20.7572 81.5337 20.5575 81.4651 20.3469C81.3965 20.1367 81.3622 19.9223 81.3622 19.704C81.3622 19.3247 81.4675 18.964 81.6781 18.6208C81.8887 18.2782 82.1952 18.0275 82.5974 17.8689C82.9996 17.7106 83.4728 17.6311 84.0175 17.6311C84.6375 17.6311 85.3523 17.7116 86.1615 17.8727L86.2539 19.501C85.7049 19.257 85.1769 19.135 84.6708 19.135C84.3963 19.135 84.1561 19.1651 83.9503 19.2246C83.7444 19.2842 83.5962 19.3752 83.5066 19.4972C83.4166 19.6192 83.3718 19.7555 83.3718 19.9061C83.3718 19.9942 83.3861 20.0815 83.4142 20.1672C83.4428 20.253 83.4923 20.3426 83.5633 20.436C83.6343 20.5294 83.7158 20.618 83.8083 20.701C83.9007 20.7844 84.0932 20.9478 84.3868 21.1918C84.6804 21.4358 84.9372 21.6569 85.1574 21.8542C85.3775 22.0515 85.5586 22.2502 85.7006 22.4504C85.8426 22.6505 85.9513 22.8645 86.0271 23.0932C86.1028 23.322 86.1405 23.5531 86.1405 23.7866C86.1405 24.1759 86.0314 24.5372 85.8141 24.8698C85.5963 25.2024 85.2675 25.4621 84.8271 25.6489C84.3868 25.8357 83.8945 25.9296 83.3503 25.9296C83.0663 25.9296 82.7208 25.9049 82.3138 25.8558C81.9064 25.8062 81.4708 25.719 81.0071 25.5946Z" fill="white"/>
<path d="M88.1209 19.5558C88.1871 19.1817 88.2286 18.9196 88.2453 18.769C88.2619 18.6185 88.2915 18.3897 88.3339 18.0833C88.9777 17.917 89.5458 17.8002 90.038 17.7326C90.5303 17.6649 91.0059 17.6311 91.4653 17.6311C91.9862 17.6311 92.4641 17.6973 92.8997 17.8298C93.3353 17.9623 93.676 18.1738 93.9219 18.465C94.1678 18.7562 94.2912 19.1741 94.2912 19.7193C94.2912 20.0152 94.2536 20.7701 94.1783 21.9829C94.103 23.1957 94.0582 24.449 94.0444 25.7423C93.6841 25.7319 93.3529 25.7266 93.0498 25.7266C92.7605 25.7266 92.4222 25.7319 92.0338 25.7423C92.0962 25.1138 92.1463 24.3866 92.1844 23.5607L92.2778 21.6207C92.0977 21.7508 91.9604 21.8413 91.8656 21.8933C91.7708 21.9452 91.6645 21.9934 91.5458 22.0372C91.4272 22.0815 91.2189 22.1492 90.9206 22.2397C90.6223 22.3308 90.3831 22.4099 90.2029 22.4775C90.0228 22.5452 89.8608 22.6214 89.7164 22.7072C89.572 22.793 89.45 22.8893 89.3504 22.9955C89.2508 23.1023 89.1788 23.2138 89.1335 23.3305C89.0883 23.4473 89.0659 23.5736 89.0659 23.7085C89.0659 23.9267 89.124 24.1149 89.2398 24.2732C89.3556 24.4318 89.5014 24.5419 89.6763 24.6044C89.8512 24.6668 90.0571 24.6978 90.2939 24.6978C90.4455 24.6978 90.6051 24.6849 90.7733 24.6587C90.9411 24.6329 91.1674 24.5677 91.4515 24.4638C91.3519 24.7597 91.2361 25.2015 91.1036 25.7881C90.7676 25.8505 90.5003 25.8896 90.3011 25.9049C90.1019 25.9201 89.9179 25.9282 89.7473 25.9282C89.1512 25.9282 88.6613 25.84 88.2777 25.6632C87.8945 25.4869 87.6115 25.2062 87.4294 24.8217C87.2469 24.4371 87.1559 24.0501 87.1559 23.6608C87.1559 23.4373 87.1916 23.2167 87.2622 22.9984C87.3332 22.7801 87.4375 22.5805 87.5748 22.3984C87.712 22.2169 87.8898 22.0415 88.1075 21.8723C88.3253 21.7036 88.6403 21.5402 89.0525 21.3815C89.4648 21.2233 90.0094 21.0631 90.6866 20.9021C90.8667 20.8606 91.0536 20.8101 91.248 20.7501C91.4419 20.6905 91.5973 20.6319 91.7136 20.5747C91.8298 20.5175 91.9304 20.4436 92.0152 20.3526C92.1005 20.2616 92.1634 20.1668 92.2035 20.0681C92.2435 19.9695 92.264 19.8684 92.264 19.7641C92.264 19.5615 92.2035 19.39 92.0829 19.2499C91.9623 19.1098 91.806 19.0121 91.614 18.9578C91.4219 18.9034 91.2099 18.8758 90.9778 18.8758C90.1152 18.8782 89.1631 19.1041 88.1209 19.5558Z" fill="white"/>
<path d="M94.93 29.3189C94.8447 28.5398 94.7761 27.9789 94.7241 27.6358C95.1787 27.8697 95.6072 27.9865 96.0094 27.9865C96.1323 27.9865 96.2577 27.9693 96.3858 27.936C96.5136 27.9022 96.6322 27.854 96.7409 27.7921C96.8119 27.7506 96.8838 27.691 96.9572 27.6134C97.0306 27.5357 97.1312 27.3927 97.2589 27.1854C97.3866 26.9777 97.4981 26.7727 97.5925 26.5707C97.6682 26.3972 97.7459 26.179 97.8264 25.9164L96.3496 21.1795L95.2702 17.8194C95.7673 17.8299 96.1242 17.8351 96.342 17.8351C96.5927 17.8351 96.922 17.8299 97.3289 17.8194C97.4285 18.2507 97.521 18.6248 97.6063 18.9417L98.2815 21.3887C98.4898 22.1421 98.6389 22.7083 98.729 23.0876C98.7857 23.3368 98.852 23.6671 98.9282 24.0774C99.0697 23.6047 99.1927 23.2201 99.2971 22.9242C99.4815 22.3838 99.7388 21.6618 100.07 20.7578L100.758 18.8954C100.881 18.5633 101.006 18.2044 101.134 17.8199C101.56 17.8304 101.885 17.8356 102.107 17.8356C102.311 17.8356 102.652 17.8304 103.13 17.8199L100.397 24.5396L99.2113 27.5061C99.0454 27.8902 98.8872 28.1886 98.7357 28.4016C98.6127 28.5831 98.4779 28.739 98.3311 28.8686C98.1891 28.993 98.0376 29.0969 97.8765 29.1803C97.673 29.2841 97.4528 29.3671 97.216 29.4295C96.9463 29.4919 96.6742 29.5229 96.3997 29.5229C96.2434 29.5229 96.0256 29.5072 95.7463 29.4762C95.4671 29.4433 95.195 29.3914 94.93 29.3189Z" fill="white"/>
<path d="M104.203 19.5558C104.269 19.1817 104.31 18.9196 104.327 18.769C104.344 18.6185 104.373 18.3897 104.416 18.0833C105.06 17.917 105.628 17.8002 106.12 17.7326C106.612 17.6649 107.088 17.6311 107.547 17.6311C108.068 17.6311 108.546 17.6973 108.981 17.8298C109.417 17.9623 109.758 18.1738 110.004 18.465C110.25 18.7562 110.373 19.1741 110.373 19.7193C110.373 20.0152 110.335 20.7701 110.26 21.9829C110.185 23.1957 110.14 24.449 110.126 25.7423C109.766 25.7319 109.435 25.7266 109.132 25.7266C108.842 25.7266 108.504 25.7319 108.116 25.7423C108.178 25.1138 108.228 24.3866 108.266 23.5607L108.36 21.6207C108.179 21.7508 108.042 21.8413 107.947 21.8933C107.853 21.9452 107.746 21.9934 107.628 22.0372C107.509 22.0815 107.301 22.1492 107.002 22.2397C106.704 22.3308 106.465 22.4099 106.285 22.4775C106.105 22.5452 105.943 22.6214 105.798 22.7072C105.654 22.793 105.532 22.8893 105.432 22.9955C105.333 23.1023 105.261 23.2138 105.215 23.3305C105.17 23.4473 105.148 23.5736 105.148 23.7085C105.148 23.9267 105.206 24.1149 105.322 24.2732C105.437 24.4318 105.583 24.5419 105.758 24.6044C105.933 24.6668 106.139 24.6978 106.376 24.6978C106.527 24.6978 106.687 24.6849 106.855 24.6587C107.023 24.6329 107.249 24.5677 107.533 24.4638C107.434 24.7597 107.318 25.2015 107.185 25.7881C106.849 25.8505 106.582 25.8896 106.383 25.9049C106.184 25.9201 106 25.9282 105.829 25.9282C105.233 25.9282 104.743 25.84 104.359 25.6632C103.976 25.4869 103.693 25.2062 103.511 24.8217C103.329 24.4371 103.238 24.0501 103.238 23.6608C103.238 23.4373 103.273 23.2167 103.344 22.9984C103.415 22.7801 103.519 22.5805 103.657 22.3984C103.794 22.2169 103.972 22.0415 104.189 21.8723C104.407 21.7036 104.722 21.5402 105.134 21.3815C105.547 21.2233 106.091 21.0631 106.768 20.9021C106.949 20.8606 107.135 20.8101 107.33 20.7501C107.524 20.6905 107.679 20.6319 107.795 20.5747C107.912 20.5175 108.012 20.4436 108.097 20.3526C108.182 20.2616 108.245 20.1668 108.285 20.0681C108.325 19.9695 108.346 19.8684 108.346 19.7641C108.346 19.5615 108.285 19.39 108.165 19.2499C108.044 19.1098 107.888 19.0121 107.696 18.9578C107.504 18.9034 107.292 18.8758 107.06 18.8758C106.197 18.8782 105.245 19.1041 104.203 19.5558Z" fill="white"/>
<path d="M111.849 25.7423C111.957 24.5634 112.048 23.2386 112.121 21.7684C112.194 20.2983 112.235 18.9816 112.244 17.8179C112.68 17.8283 113.029 17.8336 113.289 17.8336C113.597 17.8336 113.924 17.8283 114.27 17.8179L114.191 19.1427C114.338 18.9139 114.467 18.7324 114.578 18.597C114.689 18.4622 114.831 18.3297 115.004 18.1996C115.177 18.07 115.361 17.9656 115.558 17.8879C115.754 17.8098 115.974 17.7478 116.218 17.7011C116.462 17.6544 116.717 17.6311 116.982 17.6311C117.403 17.6311 117.807 17.6897 118.193 17.8064C118.579 17.9232 118.89 18.109 119.126 18.3635C119.363 18.618 119.519 18.8958 119.595 19.197C119.671 19.4982 119.708 19.8179 119.708 20.1553C119.708 20.2954 119.701 20.5189 119.687 20.8253L119.54 24.2303C119.522 24.703 119.51 25.2067 119.505 25.7419C119.131 25.7314 118.811 25.7261 118.546 25.7261C118.185 25.7261 117.823 25.7314 117.458 25.7419C117.496 25.2901 117.543 24.5019 117.6 23.3773C117.657 22.2526 117.686 21.5087 117.686 21.1451C117.686 20.7348 117.626 20.405 117.508 20.1558C117.39 19.9066 117.207 19.7169 116.958 19.5868C116.71 19.4572 116.442 19.3919 116.153 19.3919C115.869 19.3919 115.604 19.4515 115.359 19.5711C115.113 19.6907 114.9 19.8646 114.72 20.0929C114.531 20.3269 114.384 20.6147 114.28 20.9578C114.171 21.3214 114.091 21.9214 114.039 22.7577C113.991 23.5007 113.953 24.4952 113.925 25.7419C113.56 25.7314 113.23 25.7261 112.936 25.7261C112.638 25.7271 112.276 25.7323 111.849 25.7423Z" fill="white"/>
<path d="M44.6597 36.2203V36.076C45.0419 36.045 45.0824 36.014 45.0824 35.5813V33.5984C45.0824 33.1619 45.0419 33.1309 44.6597 33.1037V32.9527H45.9373V33.1037C45.5584 33.1314 45.5179 33.1624 45.5179 33.5984V35.5813C45.5179 36.0145 45.5584 36.0455 45.9373 36.076V36.2203H44.6597Z" fill="white"/>
<path d="M47.5309 36.2203V36.0864C47.7968 36.0555 47.8283 36.0145 47.8283 35.6604V34.8426C47.8283 34.4919 47.7001 34.2827 47.4151 34.2827C47.2397 34.2827 47.0677 34.4028 46.9266 34.53V35.6914C46.9266 36.035 46.9519 36.0555 47.2211 36.0864V36.2203H46.188V36.0864C46.4977 36.045 46.523 36.0211 46.523 35.6842V34.6739C46.523 34.3475 46.4915 34.327 46.2476 34.2789V34.1517C46.4701 34.114 46.7108 34.0487 46.9271 33.9525V34.358C47.021 34.2822 47.1211 34.2031 47.2402 34.1173C47.3717 34.0244 47.4875 33.9696 47.6252 33.9696C47.9946 33.9696 48.2295 34.2551 48.2295 34.7531V35.6914C48.2295 36.035 48.2576 36.0488 48.5269 36.0864V36.2203H47.5309Z" fill="white"/>
<path d="M49.0901 34.0277V33.9143C49.0901 33.7527 49.1087 33.6188 49.1401 33.5087C49.1716 33.3953 49.2531 33.1513 49.5095 32.9178C49.6724 32.7596 49.8383 32.6705 50.0294 32.6462C50.1952 32.6495 50.3267 32.7219 50.4049 32.8182C50.4549 32.8768 50.4583 32.9454 50.4301 33.0107C50.4116 33.0522 50.3801 33.0932 50.3363 33.1308C50.2862 33.1723 50.2452 33.1723 50.2014 33.1203C50.1075 33.0207 49.9698 32.9211 49.8192 32.9211C49.7001 32.9211 49.6315 32.9831 49.5814 33.0722C49.528 33.1618 49.4813 33.3953 49.4904 33.818V34.0277H50.0413C50.0694 34.0725 50.0475 34.203 49.9912 34.2374H49.4904V35.6598C49.4904 36.0311 49.528 36.0482 49.8912 36.0892V36.2198H48.7575V36.0859C49.052 36.0549 49.0891 36.0239 49.0891 35.6942V34.2369H48.7603L48.7384 34.1783L48.8699 34.0272H49.0901V34.0277Z" fill="white"/>
<path d="M51.2164 33.969C51.8111 33.969 52.2495 34.4742 52.2495 35.0827C52.2495 35.8938 51.6858 36.2784 51.213 36.2784C50.5463 36.2784 50.158 35.7284 50.158 35.1752C50.158 34.3541 50.7718 33.969 51.213 33.969H51.2164ZM51.1568 34.1377C50.8875 34.1377 50.6369 34.4365 50.6369 35.0036C50.6369 35.6393 50.8876 36.1035 51.2631 36.1035C51.5323 36.1035 51.7735 35.9043 51.7735 35.1995C51.7735 34.5981 51.5542 34.1377 51.163 34.1377H51.1568Z" fill="white"/>
<path d="M53.2454 34.5123C53.3989 34.2373 53.5899 33.9695 53.8058 33.9695C53.975 33.9695 54.0875 34.1034 54.0875 34.2273C54.0875 34.344 54.025 34.4475 53.9245 34.4989C53.8683 34.5228 53.8273 34.5127 53.7992 34.4851C53.7272 34.4132 53.6738 34.3822 53.5957 34.3822C53.4765 34.3822 53.336 34.5299 53.2354 34.7982V35.6951C53.2354 36.0248 53.2573 36.0558 53.6204 36.0868V36.2207H52.5087V36.0868C52.7903 36.0558 52.8313 36.0248 52.8313 35.6951V34.6538C52.8313 34.334 52.806 34.3135 52.5463 34.2726V34.1591C52.7779 34.1177 52.9971 34.0596 53.2354 33.9528V34.5127H53.2454V34.5123Z" fill="white"/>
<path d="M56.8806 36.2203V36.0864C57.1403 36.0554 57.1937 36.0316 57.1937 35.6742V34.8631C57.1937 34.4852 57.0621 34.2822 56.7929 34.2822C56.6428 34.2822 56.4736 34.3784 56.2982 34.5328C56.3044 34.5948 56.3106 34.6529 56.3106 34.7425V35.708C56.3106 36.0239 56.3545 36.0549 56.608 36.0859V36.2198H55.5839V36.0859C55.8627 36.0549 55.9032 36.0311 55.9032 35.7009V34.8521C55.9032 34.4742 55.775 34.2817 55.5086 34.2817C55.3332 34.2817 55.1612 34.4089 55.0201 34.529V35.7009C55.0201 36.024 55.0606 36.0549 55.2737 36.0859V36.2198H54.2715V36.0859C54.5722 36.0549 54.616 36.024 54.616 35.6942V34.6734C54.616 34.3537 54.6003 34.3227 54.3344 34.2784V34.1511C54.535 34.1168 54.7947 34.0515 55.0139 33.9519V34.3641C55.114 34.2922 55.2146 34.1993 55.3551 34.1063C55.4805 34.0239 55.5929 33.9691 55.7402 33.9691C55.9627 33.9691 56.1629 34.124 56.2601 34.3813C56.3978 34.2712 56.5294 34.1788 56.6423 34.0958C56.7424 34.0272 56.8615 33.9686 56.993 33.9686C57.3624 33.9686 57.6006 34.2469 57.6006 34.752V35.7004C57.6006 36.0335 57.6321 36.0473 57.9013 36.0854V36.2193H56.8806V36.2203Z" fill="white"/>
<path d="M59.6269 36.2784C59.5392 36.2784 59.4391 36.2336 59.3891 36.1788C59.3266 36.1135 59.2981 36.0449 59.2761 35.9658C59.0884 36.0963 58.8692 36.2784 58.7376 36.2784C58.3902 36.2784 58.1615 35.9758 58.1615 35.6598C58.1615 35.4091 58.2868 35.2576 58.5404 35.1685C58.8377 35.0656 59.1603 34.935 59.2604 34.8421V34.7525C59.2604 34.3917 59.1103 34.1992 58.8878 34.1992C58.8063 34.1992 58.7376 34.2335 58.6905 34.2888C58.6309 34.3541 58.5904 34.4675 58.5494 34.629C58.5213 34.7186 58.4713 34.7529 58.3993 34.7529C58.3083 34.7529 58.1863 34.65 58.1863 34.5294C58.1863 34.4537 58.2458 34.3922 58.3364 34.3231C58.4713 34.2164 58.7872 34.0243 59.0474 33.969C59.1946 33.969 59.329 34.0067 59.4358 34.0963C59.6078 34.2545 59.6583 34.4642 59.6583 34.732V35.636C59.6583 35.8595 59.7398 35.9348 59.8242 35.9348C59.8775 35.9348 59.94 35.9109 59.99 35.88L60.0372 36.0139L59.6269 36.2784ZM59.2604 35.0174C59.1665 35.0689 58.9788 35.1652 58.8816 35.2133C58.7 35.2991 58.5999 35.3987 58.5999 35.5845C58.5999 35.849 58.7815 35.9658 58.9192 35.9658C59.0288 35.9658 59.1789 35.89 59.2604 35.8009V35.0174Z" fill="white"/>
<path d="M61.0704 36.2098C60.986 36.2613 60.9136 36.2784 60.8731 36.2784C60.5633 36.2784 60.3908 36.0859 60.3908 35.6804V34.2369H60.0744L60.0525 34.1783L60.1807 34.0272H60.3904V33.6631L60.7316 33.3124L60.794 33.3262V34.0272H61.3139C61.3611 34.082 61.3454 34.1921 61.2825 34.2369H60.794V35.505C60.794 35.9105 60.9536 35.9792 61.0694 35.9792C61.179 35.9792 61.2825 35.931 61.3511 35.8934L61.3916 36.0306L61.0704 36.2098Z" fill="white"/>
<path d="M61.587 36.2202V36.0863C61.8782 36.0553 61.9125 36.0244 61.9125 35.6741V34.6638C61.9125 34.3479 61.8968 34.3236 61.6213 34.2721V34.152C61.872 34.1072 62.1065 34.0491 62.3166 33.9595V35.6741C62.3166 36.021 62.3481 36.0487 62.6454 36.0863V36.2202H61.587ZM61.831 33.2718C61.831 33.1103 61.9502 32.9902 62.0879 32.9902C62.2256 32.9902 62.3319 33.1103 62.3319 33.2718C62.3319 33.4162 62.2256 33.5435 62.0812 33.5435C61.9502 33.543 61.831 33.4158 61.831 33.2718Z" fill="white"/>
<path d="M63.9387 33.969C64.5334 33.969 64.9718 34.4742 64.9718 35.0827C64.9718 35.8938 64.4081 36.2784 63.9353 36.2784C63.2682 36.2784 62.8802 35.7284 62.8802 35.1752C62.8802 34.3541 63.494 33.969 63.9353 33.969H63.9387ZM63.8791 34.1377C63.6098 34.1377 63.3592 34.4365 63.3592 35.0036C63.3592 35.6393 63.6098 36.1035 63.9854 36.1035C64.2546 36.1035 64.4957 35.9043 64.4957 35.1995C64.4957 34.5981 64.2765 34.1377 63.8853 34.1377H63.8791Z" fill="white"/>
<path d="M66.5626 36.2203V36.0864C66.8285 36.0555 66.86 36.0145 66.86 35.6604V34.8426C66.86 34.4919 66.7318 34.2827 66.4468 34.2827C66.2715 34.2827 66.0994 34.4028 65.9584 34.53V35.6914C65.9584 36.035 65.9836 36.0555 66.2529 36.0864V36.2203H65.2197V36.0864C65.5295 36.045 65.5547 36.0211 65.5547 35.6842V34.6739C65.5547 34.3475 65.5233 34.327 65.2793 34.2789V34.1517C65.5018 34.114 65.7425 34.0487 65.9588 33.9525V34.358C66.0527 34.2822 66.1528 34.2031 66.2719 34.1173C66.4035 34.0244 66.5193 33.9696 66.657 33.9696C67.0263 33.9696 67.2612 34.2551 67.2612 34.7531V35.6914C67.2612 36.035 67.2894 36.0488 67.5586 36.0864V36.2203H66.5626Z" fill="white"/>
<path d="M71.6104 33.7632C71.5603 33.5126 71.5103 33.3782 71.4507 33.2924C71.3726 33.1757 71.2911 33.1375 70.9341 33.1375H70.6148V35.5879C70.6148 35.9868 70.6554 36.0449 71.1 36.0759V36.2203H69.7127V36.0759C70.1416 36.0449 70.1826 35.9901 70.1826 35.5879V33.1375H69.91C69.5031 33.1375 69.4058 33.1857 69.3434 33.2924C69.2839 33.3782 69.2433 33.5259 69.1838 33.7632H69.0427C69.0646 33.4368 69.0866 33.1032 69.0961 32.8249H69.1962C69.2653 32.9522 69.3244 32.9522 69.4621 32.9522H71.3597C71.4879 32.9522 71.5317 32.9212 71.6037 32.8249H71.7038C71.7038 33.0551 71.729 33.4435 71.7509 33.7461L71.6104 33.7632Z" fill="white"/>
<path d="M73.2601 35.7732C72.9594 36.1893 72.6244 36.2784 72.4743 36.2784C71.9015 36.2784 71.5631 35.7732 71.5631 35.2133C71.5631 34.8797 71.6727 34.5776 71.8605 34.3541C72.0611 34.1134 72.3146 33.969 72.5619 33.969H72.5653C72.9627 33.969 73.2792 34.3436 73.2792 34.7425C73.2792 34.8387 73.2539 34.8835 73.1695 34.904C73.0852 34.9178 72.5029 34.9693 71.9639 34.9898C71.9734 35.6393 72.3208 35.9143 72.6434 35.9143C72.8345 35.9143 73.0128 35.8352 73.1819 35.6636L73.2601 35.7732ZM72.4523 34.1582C72.2517 34.1582 72.0516 34.3541 71.9858 34.7734C72.2331 34.7734 72.4805 34.7734 72.7402 34.763C72.8217 34.7596 72.8498 34.732 72.8498 34.6667C72.8498 34.4022 72.6997 34.1582 72.4552 34.1582H72.4523Z" fill="white"/>
<path d="M75.3426 35.7561C75.1329 36.0549 74.8165 36.2784 74.5444 36.2784C73.9368 36.2784 73.5861 35.7627 73.5861 35.2304C73.5861 34.8492 73.7457 34.509 74.0588 34.2545C74.3157 34.0481 74.5973 33.969 74.776 33.969H74.7822C74.9733 33.969 75.1267 34.031 75.2016 34.1029C75.264 34.1577 75.2768 34.2025 75.2768 34.2578C75.2768 34.3746 75.1734 34.488 75.1139 34.488C75.0858 34.488 75.0638 34.4742 75.0228 34.4294C74.8727 34.2816 74.7131 34.213 74.5468 34.213C74.2589 34.213 73.9959 34.4675 73.9959 34.9998C73.9959 35.6908 74.4529 35.9138 74.7036 35.9138C74.8975 35.9138 75.0543 35.8552 75.264 35.6422L75.3426 35.7561Z" fill="white"/>
<path d="M76.7892 36.2203V36.0864C77.0522 36.0554 77.0899 36.0211 77.0899 35.6947V34.8803C77.0899 34.4642 76.9331 34.2684 76.6453 34.2684C76.4761 34.2684 76.3041 34.358 76.1754 34.5124V35.6947C76.1754 36.0145 76.2035 36.0554 76.4699 36.0864V36.2203H75.4553V36.0864C75.7341 36.0554 75.7746 36.0245 75.7746 35.6947V33.3062C75.7746 32.9903 75.7622 32.9727 75.4649 32.9422V32.8221C75.6841 32.7878 75.9848 32.712 76.1759 32.6467V34.3341C76.3512 34.1488 76.5952 33.9701 76.843 33.9701C77.2252 33.9701 77.4945 34.2245 77.4945 34.8398V35.6956C77.4945 36.0326 77.5288 36.0564 77.7952 36.0874V36.2213H76.7892V36.2203Z" fill="white"/>
<path d="M79.363 36.2203V36.0864C79.629 36.0555 79.6604 36.0145 79.6604 35.6604V34.8426C79.6604 34.4919 79.5322 34.2827 79.2472 34.2827C79.0719 34.2827 78.8998 34.4028 78.7588 34.53V35.6914C78.7588 36.035 78.784 36.0555 79.0533 36.0864V36.2203H78.0201V36.0864C78.3299 36.045 78.3552 36.0211 78.3552 35.6842V34.6739C78.3552 34.3475 78.3237 34.327 78.0797 34.2789V34.1517C78.3023 34.114 78.5429 34.0487 78.7593 33.9525V34.358C78.8531 34.2822 78.9532 34.2031 79.0724 34.1173C79.2039 34.0244 79.3197 33.9696 79.4574 33.9696C79.8267 33.9696 80.0617 34.2551 80.0617 34.7531V35.6914C80.0617 36.035 80.0898 36.0488 80.359 36.0864V36.2203H79.363Z" fill="white"/>
<path d="M81.6707 33.969C82.2654 33.969 82.7039 34.4742 82.7039 35.0827C82.7039 35.8938 82.1401 36.2784 81.6674 36.2784C81.0002 36.2784 80.6123 35.7284 80.6123 35.1752C80.6123 34.3541 81.2261 33.969 81.6674 33.969H81.6707ZM81.6116 34.1377C81.3424 34.1377 81.0917 34.4365 81.0917 35.0036C81.0917 35.6393 81.3424 36.1035 81.7179 36.1035C81.9871 36.1035 82.2283 35.9043 82.2283 35.1995C82.2283 34.5981 82.0091 34.1377 81.6178 34.1377H81.6116Z" fill="white"/>
<path d="M82.9076 36.2203V36.0864C83.1988 36.0487 83.2393 36.0211 83.2393 35.6842V33.3267C83.2393 32.9864 83.2078 32.9759 82.92 32.9454V32.8215C83.1706 32.7906 83.4709 32.7048 83.64 32.6462V35.6842C83.64 36.0244 83.6806 36.0554 83.9846 36.0864V36.2203H82.9076Z" fill="white"/>
<path d="M85.2654 33.969C85.8602 33.969 86.2986 34.4742 86.2986 35.0827C86.2986 35.8938 85.7348 36.2784 85.2621 36.2784C84.5949 36.2784 84.207 35.7284 84.207 35.1752C84.207 34.3541 84.8208 33.969 85.2621 33.969H85.2654ZM85.2059 34.1377C84.9366 34.1377 84.686 34.4365 84.686 35.0036C84.686 35.6393 84.9366 36.1035 85.3121 36.1035C85.5814 36.1035 85.8225 35.9043 85.8225 35.1995C85.8225 34.5981 85.6033 34.1377 85.2121 34.1377H85.2059Z" fill="white"/>
<path d="M88.6817 34.0691C88.6474 34.1482 88.5502 34.2821 88.472 34.3269L88.209 34.3131C88.2871 34.4198 88.3405 34.5742 88.3405 34.7529C88.3405 35.2891 87.9178 35.5535 87.5075 35.5535C87.4198 35.5535 87.3383 35.5397 87.2635 35.5297C87.204 35.5745 87.1444 35.6536 87.1444 35.7189C87.1444 35.8152 87.2287 35.9148 87.4389 35.9148C87.6019 35.9148 87.7615 35.9043 87.9212 35.9043C88.2028 35.9043 88.6007 36.0005 88.6007 36.5057C88.6007 37.028 88.0432 37.516 87.4203 37.516C86.8913 37.516 86.6092 37.1862 86.603 36.9007C86.603 36.7806 86.6502 36.6844 86.725 36.612C86.8284 36.5052 86.9909 36.3746 87.1005 36.2784C86.9285 36.2236 86.8127 36.1135 86.7531 36.0034C86.7093 35.9314 86.6907 35.8352 86.6998 35.7799C86.8909 35.7041 87.041 35.5736 87.1129 35.4773C86.8937 35.3777 86.7026 35.137 86.7026 34.8039C86.7026 34.2268 87.1816 33.969 87.5514 33.969H87.5576C87.711 33.969 87.8611 34.0138 88.0084 34.0963C88.2462 34.0824 88.4873 34.0515 88.6598 34.0276L88.6817 34.0691ZM87.5923 36.296C87.3793 36.296 87.273 36.327 87.1916 36.3989C87.0786 36.5057 86.9943 36.6363 86.9943 36.7702C86.9943 37.0346 87.2511 37.2581 87.6109 37.2581C88.0303 37.2581 88.259 37.0175 88.259 36.7115C88.259 36.5362 88.1775 36.4089 88.0431 36.3541C87.9212 36.306 87.7896 36.2955 87.5985 36.2955H87.5923V36.296ZM87.5075 34.1272C87.3198 34.1272 87.1382 34.3264 87.1382 34.722C87.1382 35.1104 87.304 35.3887 87.5576 35.3887C87.7582 35.3853 87.9302 35.1895 87.9302 34.7939C87.9302 34.4127 87.7706 34.1272 87.5108 34.1272H87.5075Z" fill="white"/>
<path d="M91.0394 34.1615C90.7921 34.203 90.7516 34.244 90.6262 34.5328C90.5104 34.7872 90.3603 35.2099 90.0377 36.0244C89.7213 36.825 89.6212 37.1104 89.5431 37.3954C89.5211 37.4916 89.4616 37.5155 89.3991 37.5155C89.2643 37.5155 89.1204 37.3916 89.1204 37.2577C89.1204 37.1752 89.1609 37.1304 89.2395 37.0723C89.3991 36.9693 89.4902 36.8559 89.6026 36.6291C89.6841 36.4642 89.7218 36.3646 89.7403 36.306C89.7685 36.2302 89.7589 36.1616 89.7308 36.0792C89.5335 35.4844 89.3177 34.8592 89.189 34.5294C89.0889 34.2683 89.0389 34.203 88.7882 34.1615V34.0276H89.7713L89.7775 34.1615C89.5616 34.203 89.5335 34.2473 89.5926 34.4294L90.012 35.6598C90.1373 35.3438 90.3375 34.7491 90.4285 34.4465C90.488 34.2611 90.4504 34.2025 90.1907 34.1611V34.0272H91.0394V34.1615Z" fill="white"/>
<path d="M95.5924 34.213C95.2669 34.2545 95.1978 34.3436 95.0382 34.5876C94.9128 34.7768 94.797 34.9826 94.6341 35.2438C94.8533 35.464 95.2574 35.9553 95.4075 36.2612L95.3822 36.3093C95.0877 36.2889 94.828 36.1754 94.7718 36.1102C94.7122 36.0415 94.5182 35.8114 94.3648 35.636C94.0265 36.1101 93.7229 36.2889 93.3879 36.2889C92.7865 36.2889 92.4486 35.8114 92.4486 35.3677C92.4486 34.9073 92.7364 34.7215 93.1439 34.4122C92.9342 34.2025 92.8089 33.9929 92.8089 33.7112C92.8089 33.2609 93.1753 32.9073 93.5947 32.9073C93.9893 32.9073 94.3057 33.2027 94.3057 33.6083C94.3057 33.818 94.2147 33.9519 94.1084 34.0481C94.0241 34.1272 93.9078 34.2164 93.7296 34.3469C93.8864 34.488 94.2147 34.7868 94.5154 35.1132C94.625 34.9378 94.7065 34.7696 94.7942 34.5533C94.8785 34.3264 94.838 34.2612 94.5063 34.213L94.5097 34.0686H95.5929V34.213H95.5924ZM93.5289 35.9248C93.8235 35.9248 94.1051 35.7084 94.249 35.4954C93.9893 35.1928 93.6948 34.894 93.2659 34.5299C92.9843 34.7429 92.8775 34.9731 92.8775 35.2104C92.8775 35.6846 93.2159 35.9253 93.5256 35.9253H93.5289V35.9248ZM93.5475 33.0827C93.3345 33.0827 93.1687 33.2923 93.1749 33.5811C93.1749 33.8423 93.3159 34.0143 93.6038 34.2478C93.8134 34.0829 93.9354 33.8837 93.9354 33.6121C93.9354 33.3233 93.7758 33.0827 93.5533 33.0827H93.5475Z" fill="white"/>
<path d="M99.4062 35.4059C99.3747 35.5951 99.2842 36.0588 99.2432 36.2203H96.9448V36.076C97.3675 36.0416 97.408 35.9935 97.408 35.5813V33.6122C97.408 33.1519 97.3675 33.1381 97.0039 33.1037V32.9527H99.1269C99.1331 33.0832 99.1522 33.4168 99.1708 33.6985L99.0269 33.719C98.983 33.5093 98.933 33.3925 98.8734 33.2824C98.8043 33.1724 98.6761 33.1381 98.3535 33.1381H98.0061C97.8526 33.1381 97.8431 33.1519 97.8431 33.3029V34.43H98.272C98.6914 34.43 98.7228 34.3885 98.7824 34.0487H98.9234V35.0352H98.7824C98.7166 34.6673 98.6823 34.6401 98.272 34.6401H97.8431V35.5646C97.8431 35.8019 97.8684 35.9154 97.9561 35.9768C98.0471 36.0354 98.222 36.0354 98.435 36.0354C98.7762 36.0354 98.9172 36.0011 99.0235 35.8706C99.105 35.7638 99.1927 35.5889 99.2613 35.3859L99.4062 35.4059Z" fill="white"/>
<path d="M100.846 35.2339H99.7566L99.819 34.9451H100.915L100.846 35.2339Z" fill="white"/>
<path d="M103.909 36.2203V36.0864C104.169 36.0554 104.222 36.0316 104.222 35.6742V34.8631C104.222 34.4852 104.091 34.2822 103.821 34.2822C103.671 34.2822 103.502 34.3784 103.327 34.5328C103.333 34.5948 103.339 34.6529 103.339 34.7425V35.708C103.339 36.0239 103.383 36.0549 103.637 36.0859V36.2198H102.612V36.0859C102.891 36.0549 102.932 36.0311 102.932 35.7009V34.8521C102.932 34.4742 102.804 34.2817 102.537 34.2817C102.362 34.2817 102.19 34.4089 102.049 34.529V35.7009C102.049 36.024 102.089 36.0549 102.302 36.0859V36.2198H101.3V36.0859C101.601 36.0549 101.645 36.024 101.645 35.6942V34.6734C101.645 34.3537 101.629 34.3227 101.363 34.2784V34.1511C101.564 34.1168 101.823 34.0515 102.043 33.9519V34.3641C102.143 34.2922 102.243 34.1993 102.384 34.1063C102.509 34.0239 102.622 33.9691 102.769 33.9691C102.991 33.9691 103.191 34.124 103.289 34.3813C103.426 34.2712 103.558 34.1788 103.671 34.0958C103.771 34.0272 103.89 33.9686 104.022 33.9686C104.391 33.9686 104.629 34.2469 104.629 34.752V35.7004C104.629 36.0335 104.661 36.0473 104.93 36.0854V36.2193H103.909V36.2203Z" fill="white"/>
<path d="M106.655 36.2784C106.567 36.2784 106.467 36.2336 106.417 36.1788C106.355 36.1135 106.326 36.0449 106.304 35.9658C106.116 36.0963 105.897 36.2784 105.766 36.2784C105.418 36.2784 105.189 35.9758 105.189 35.6598C105.189 35.4091 105.315 35.2576 105.568 35.1685C105.866 35.0656 106.188 34.935 106.288 34.8421V34.7525C106.288 34.3917 106.138 34.1992 105.916 34.1992C105.834 34.1992 105.766 34.2335 105.718 34.2888C105.659 34.3541 105.618 34.4675 105.577 34.629C105.549 34.7186 105.499 34.7529 105.427 34.7529C105.336 34.7529 105.214 34.65 105.214 34.5294C105.214 34.4537 105.274 34.3922 105.364 34.3231C105.499 34.2164 105.815 34.0243 106.075 33.969C106.223 33.969 106.357 34.0067 106.464 34.0963C106.636 34.2545 106.686 34.4642 106.686 34.732V35.636C106.686 35.8595 106.768 35.9348 106.852 35.9348C106.905 35.9348 106.968 35.9109 107.018 35.88L107.065 36.0139L106.655 36.2784ZM106.288 35.0174C106.194 35.0689 106.007 35.1652 105.91 35.2133C105.728 35.2991 105.628 35.3987 105.628 35.5845C105.628 35.849 105.809 35.9658 105.947 35.9658C106.057 35.9658 106.207 35.89 106.288 35.8009V35.0174Z" fill="white"/>
<path d="M107.936 34.5123C108.089 34.2373 108.281 33.9695 108.496 33.9695C108.666 33.9695 108.778 34.1034 108.778 34.2273C108.778 34.344 108.716 34.4475 108.615 34.4989C108.559 34.5228 108.518 34.5127 108.49 34.4851C108.418 34.4132 108.364 34.3822 108.286 34.3822C108.167 34.3822 108.027 34.5299 107.926 34.7982V35.6951C107.926 36.0248 107.948 36.0558 108.311 36.0868V36.2207H107.199V36.0868C107.481 36.0558 107.522 36.0248 107.522 35.6951V34.6538C107.522 34.334 107.497 34.3135 107.237 34.2726V34.1591C107.468 34.1177 107.688 34.0596 107.926 33.9528V34.5127H107.936V34.5123Z" fill="white"/>
<path d="M110.547 36.2303C110.334 35.9758 110.043 35.5603 109.799 35.2405C109.743 35.1647 109.705 35.1376 109.664 35.1376C109.646 35.1342 109.624 35.1376 109.595 35.1442V35.6908C109.595 36.0244 109.636 36.0482 109.934 36.0859V36.2198H108.857V36.0859C109.166 36.0482 109.198 36.0139 109.198 35.6908V33.3267C109.198 33.0002 109.17 32.9726 108.888 32.9416V32.8215C109.107 32.7977 109.389 32.7148 109.596 32.6462V35.0141C109.733 34.9832 109.809 34.9145 109.884 34.8388C109.984 34.732 110.125 34.5295 110.203 34.3989C110.297 34.2478 110.278 34.2064 110.065 34.1787V34.0415L111.042 33.9967V34.1273C110.726 34.1821 110.607 34.2374 110.428 34.4194C110.306 34.5466 110.228 34.6429 110.037 34.8836C110.134 35.0384 110.616 35.6394 110.763 35.8114C110.923 35.9934 111.054 36.0759 111.224 36.0864V36.2203L110.547 36.2303Z" fill="white"/>
<path d="M112.971 35.7732C112.67 36.1893 112.335 36.2784 112.185 36.2784C111.612 36.2784 111.274 35.7732 111.274 35.2133C111.274 34.8797 111.383 34.5776 111.571 34.3541C111.772 34.1134 112.025 33.969 112.272 33.969H112.276C112.673 33.969 112.99 34.3436 112.99 34.7425C112.99 34.8387 112.964 34.8835 112.88 34.904C112.796 34.9178 112.213 34.9693 111.674 34.9898C111.684 35.6393 112.031 35.9143 112.354 35.9143C112.545 35.9143 112.723 35.8352 112.892 35.6636L112.971 35.7732ZM112.163 34.1582C111.962 34.1582 111.762 34.3541 111.696 34.7734C111.944 34.7734 112.191 34.7734 112.451 34.763C112.532 34.7596 112.56 34.732 112.56 34.6667C112.56 34.4022 112.41 34.1582 112.166 34.1582H112.163Z" fill="white"/>
<path d="M114.198 36.2098C114.114 36.2613 114.042 36.2784 114.001 36.2784C113.691 36.2784 113.519 36.0859 113.519 35.6804V34.2369H113.202L113.18 34.1783L113.309 34.0272H113.518V33.6631L113.859 33.3124L113.922 33.3262V34.0272H114.442C114.489 34.082 114.473 34.1921 114.41 34.2369H113.922V35.505C113.922 35.9105 114.082 35.9792 114.197 35.9792C114.307 35.9792 114.41 35.931 114.479 35.8934L114.52 36.0306L114.198 36.2098Z" fill="white"/>
<path d="M114.715 36.2202V36.0863C115.006 36.0553 115.04 36.0244 115.04 35.6741V34.6638C115.04 34.3479 115.024 34.3236 114.749 34.2721V34.152C115 34.1072 115.234 34.0491 115.444 33.9595V35.6741C115.444 36.021 115.476 36.0487 115.773 36.0863V36.2202H114.715ZM114.959 33.2718C114.959 33.1103 115.078 32.9902 115.216 32.9902C115.354 32.9902 115.46 33.1103 115.46 33.2718C115.46 33.4162 115.354 33.5435 115.209 33.5435C115.078 33.543 114.959 33.4158 114.959 33.2718Z" fill="white"/>
<path d="M117.326 36.2203V36.0864C117.592 36.0555 117.623 36.0145 117.623 35.6604V34.8426C117.623 34.4919 117.495 34.2827 117.21 34.2827C117.035 34.2827 116.863 34.4028 116.722 34.53V35.6914C116.722 36.035 116.747 36.0555 117.016 36.0864V36.2203H115.983V36.0864C116.293 36.045 116.318 36.0211 116.318 35.6842V34.6739C116.318 34.3475 116.287 34.327 116.043 34.2789V34.1517C116.265 34.114 116.506 34.0487 116.722 33.9525V34.358C116.816 34.2822 116.916 34.2031 117.035 34.1173C117.167 34.0244 117.283 33.9696 117.42 33.9696C117.79 33.9696 118.025 34.2551 118.025 34.7531V35.6914C118.025 36.035 118.053 36.0488 118.322 36.0864V36.2203H117.326Z" fill="white"/>
<path d="M120.608 34.0691C120.574 34.1482 120.476 34.2821 120.398 34.3269L120.135 34.3131C120.213 34.4198 120.267 34.5742 120.267 34.7529C120.267 35.2891 119.844 35.5535 119.434 35.5535C119.346 35.5535 119.265 35.5397 119.19 35.5297C119.13 35.5745 119.071 35.6536 119.071 35.7189C119.071 35.8152 119.155 35.9148 119.365 35.9148C119.528 35.9148 119.688 35.9043 119.847 35.9043C120.129 35.9043 120.527 36.0005 120.527 36.5057C120.527 37.028 119.969 37.516 119.347 37.516C118.818 37.516 118.535 37.1862 118.529 36.9007C118.529 36.7806 118.576 36.6844 118.651 36.612C118.755 36.5052 118.917 36.3746 119.027 36.2784C118.855 36.2236 118.739 36.1135 118.679 36.0034C118.636 35.9314 118.617 35.8352 118.626 35.7799C118.817 35.7041 118.967 35.5736 119.039 35.4773C118.82 35.3777 118.629 35.137 118.629 34.8039C118.629 34.2268 119.108 33.969 119.478 33.969H119.484C119.637 33.969 119.787 34.0138 119.935 34.0963C120.172 34.0824 120.414 34.0515 120.586 34.0276L120.608 34.0691ZM119.519 36.296C119.306 36.296 119.199 36.327 119.118 36.3989C119.005 36.5057 118.921 36.6363 118.921 36.7702C118.921 37.0346 119.177 37.2581 119.537 37.2581C119.957 37.2581 120.185 37.0175 120.185 36.7115C120.185 36.5362 120.104 36.4089 119.969 36.3541C119.847 36.306 119.716 36.2955 119.525 36.2955H119.519V36.296ZM119.434 34.1272C119.246 34.1272 119.064 34.3264 119.064 34.722C119.064 35.1104 119.23 35.3887 119.484 35.3887C119.684 35.3853 119.856 35.1895 119.856 34.7939C119.856 34.4127 119.697 34.1272 119.437 34.1272H119.434Z" fill="white"/>
</svg>
