<svg width="140" height="56" viewBox="0 0 140 56" fill="none" xmlns="http://www.w3.org/2000/svg">
<path d="M13.2854 0.00266876H140V43.6356C140 50.4608 134.461 56 127.635 56H0V13.2849C0 5.95274 5.95296 0 13.2854 0V0.00266876Z" fill="#4F008D"/>
<path d="M40.5874 20.8077V34.7063C40.5874 35.0158 40.6781 35.248 40.8569 35.4001C41.0117 35.5815 41.2171 35.6696 41.4733 35.6696H42.5539V39.6078H40.1205C38.9357 39.6078 37.8684 39.1329 36.9158 38.1803C35.4483 39.3917 33.8153 39.9947 32.0115 39.9947C29.9783 39.9947 28.2279 39.3517 26.7603 38.0656C24.8045 36.2379 23.8252 33.7938 23.8252 30.7307C23.8252 27.9265 24.7271 25.5971 26.5282 23.7427C28.1745 22.0698 30.1971 21.2346 32.5905 21.2346C33.9274 21.2346 35.2668 21.5175 36.6063 22.0831L38.266 20.8104H40.5821L40.5874 20.8077ZM35.8779 25.7866C34.976 25.453 34.1141 25.2849 33.2923 25.2849C31.9021 25.2849 30.7574 25.7946 29.8555 26.8085C28.9537 27.8251 28.5054 29.1432 28.5054 30.7654C28.5054 32.3877 28.911 33.6871 29.7221 34.6636C30.5333 35.6429 31.6193 36.1311 32.9854 36.1311C33.9113 36.1311 34.8773 35.9257 35.8805 35.5148V25.7866H35.8779ZM32.209 13.3555C32.9027 13.3555 33.4951 13.6009 33.9861 14.0892C34.4744 14.5775 34.7198 15.1698 34.7198 15.8662C34.7198 16.5626 34.4744 17.1149 33.9861 17.6032C33.4978 18.0915 32.9054 18.337 32.209 18.337C31.5125 18.337 30.9229 18.0915 30.4319 17.6032C29.9436 17.1149 29.6981 16.536 29.6981 15.8662C29.6981 15.1965 29.9436 14.5802 30.4319 14.0892C30.9202 13.6009 31.5125 13.3555 32.209 13.3555ZM38.0765 13.3555C38.7703 13.3555 39.3627 13.6009 39.8536 14.0892C40.3419 14.5775 40.5874 15.1698 40.5874 15.8662C40.5874 16.5626 40.3419 17.1149 39.8536 17.6032C39.3653 18.0915 38.773 18.337 38.0765 18.337C37.3801 18.337 36.8278 18.0915 36.3395 17.6032C35.8512 17.1149 35.6057 16.536 35.6057 15.8662C35.6057 15.1965 35.8512 14.5802 36.3395 14.0892C36.8278 13.6009 37.4068 13.3555 38.0765 13.3555Z" fill="#F5B818"/>
<path d="M53.9048 11.9648V35.6691H55.874V39.6073H54.5612L53.0937 38.0251H53.0163C52.1411 39.0817 51.0471 39.6073 49.7343 39.6073H42.2844V35.6691H48.2294C48.5389 35.6691 48.7951 35.5677 49.0005 35.3595C49.1553 35.1034 49.2327 34.8846 49.2327 34.7032V11.9648H53.9048Z" fill="#F5B818"/>
<path d="M62.5154 28.5246C62.5154 26.0805 63.3639 24.2261 65.0636 22.9668C66.4004 21.9368 68.2282 21.4219 70.5469 21.4219C72.8657 21.4219 74.7281 22.0916 76.2998 23.4284C78.2823 25.128 79.2722 27.5347 79.2722 30.6485C79.2722 33.5835 78.4878 36.0142 76.9161 37.946C75.3979 39.8244 73.4287 40.7636 71.0085 40.7636C68.8712 40.7636 67.1875 39.9658 65.9521 38.3702C65.1276 39.1947 64.1243 39.6056 62.9396 39.6056H55.5645V35.6674H61.5094C61.7923 35.6674 62.0377 35.566 62.2432 35.3578C62.422 35.1791 62.5127 34.9603 62.5127 34.7015V28.5246H62.5154ZM67.1875 35.2431C68.1401 36.273 69.2341 36.788 70.4695 36.788C71.705 36.788 72.6709 36.2544 73.442 35.1871C74.2132 34.1198 74.6001 32.735 74.6001 31.038C74.6001 29.1863 74.1758 27.7321 73.3273 26.6755C72.5561 25.7737 71.5502 25.3254 70.3148 25.3254C69.3889 25.3254 68.6551 25.6216 68.1134 26.2139C67.4971 26.7796 67.1875 27.5534 67.1875 28.5299V35.2484V35.2431Z" fill="#F5B818"/>
<path d="M88.419 11.9636V34.7019C88.419 34.9607 88.4964 35.1662 88.6512 35.3183C88.8059 35.5504 89.0488 35.6651 89.385 35.6651H90.3882V39.6034H87.88C86.8234 39.6034 85.8975 39.2299 85.0997 38.4828C84.1738 37.6343 83.7095 36.591 83.7095 35.3556V11.9609H88.419V11.9636Z" fill="#F5B818"/>
<path d="M97.8781 35.6695C97.4138 35.1279 97.0029 34.3968 96.6427 33.4683C96.2558 32.3877 96.0636 31.2564 96.0636 30.0717C96.0636 27.1367 97.1069 24.8847 99.1909 23.3158C100.891 22.0298 103.025 21.3867 105.6 21.3867C106.964 21.3867 108.38 21.6055 109.848 22.0431V25.7492C108.38 25.4157 107.118 25.2476 106.064 25.2476C102.537 25.2476 100.776 27.0113 100.776 30.5359C100.776 31.6699 101.045 32.6732 101.587 33.5483C102.489 34.9651 103.799 35.6722 105.525 35.6722H113.015V37.2171L111.086 39.6105H90.124V35.6722H97.8834L97.8781 35.6695Z" fill="#F5B818"/>
</svg>
